<svg width="47" height="46" viewBox="0 0 47 46" fill="none" xmlns="http://www.w3.org/2000/svg">
<g clip-path="url(#clip0_24_1415)">
<path d="M0.5 23C0.5 10.2975 10.7975 0 23.5 0C36.2025 0 46.5 10.2975 46.5 23C46.5 35.7025 36.2025 46 23.5 46H1.11334C0.774601 46 0.5 45.7254 0.5 45.3867V23Z" fill="#FFD874"/>
<path d="M7.49943 7C14.9815 7 21.0476 13.0654 21.0476 20.547V40H-6.04765V20.547C-6.04758 13.0654 0.0184212 7 7.49943 7ZM13.5788 29.2312C15.0181 29.2312 16.1836 28.065 16.1836 26.6264C16.1836 25.1871 15.0181 24.021 13.5788 24.021C12.1395 24.021 10.974 25.1871 10.974 26.6264C10.974 28.065 12.1395 29.2312 13.5788 29.2312Z" fill="#080A08"/>
</g>
<defs>
<clipPath id="clip0_24_1415">
<path d="M0.5 23C0.5 10.2975 10.7975 0 23.5 0C36.2025 0 46.5 10.2975 46.5 23C46.5 35.7025 36.2025 46 23.5 46H1.11334C0.774601 46 0.5 45.7254 0.5 45.3867V23Z" fill="white"/>
</clipPath>
</defs>
</svg>
