<svg width="163" height="33" viewBox="0 0 163 33" fill="none" xmlns="http://www.w3.org/2000/svg">
<g id="Frame 11">
<g id="Vector">
<mask id="path-1-inside-1_24_1254" fill="white">
<path d="M10.6808 25.1609C10.6829 24.961 10.6849 24.7742 10.687 24.5878C10.7201 24.5777 10.737 24.5675 10.753 24.5686C11.0495 24.5878 11.3457 24.6128 11.6425 24.6267C11.7814 24.6332 11.9214 24.6172 12.061 24.6145C12.3468 24.6089 12.332 24.6553 12.4676 24.3923C12.6543 24.03 12.8559 23.6749 13.0427 23.3127C13.1265 23.15 13.1826 22.974 13.2646 22.8103C13.4111 22.5175 13.566 22.2287 13.7207 21.9398C13.8532 21.6924 13.9903 21.4471 14.1255 21.201C14.1402 21.1741 14.155 21.147 14.1717 21.1213C14.2424 21.0129 14.3403 20.9625 14.4765 20.9634C14.968 20.9666 15.4595 20.9635 15.951 20.9625C17.5473 20.9594 19.1436 20.9587 20.7398 20.9515C21.2713 20.9491 21.8028 20.9313 22.3342 20.9183C22.5132 20.9139 22.6922 20.9048 22.8709 20.8941C22.9992 20.8864 23.0093 20.8884 23.0695 21.0027C23.2436 21.3334 23.4172 21.6643 23.5907 21.9953C23.7417 22.2834 23.8866 22.5746 24.0442 22.8592C24.2806 23.2858 24.5197 23.7113 24.7705 24.13C24.8579 24.276 24.9849 24.3995 25.0905 24.5357C25.1277 24.5836 25.1758 24.577 25.2244 24.5758C25.6478 24.5658 26.071 24.5549 26.4944 24.545C26.5661 24.5433 26.638 24.5447 26.7221 24.5447C26.7309 24.5772 26.7484 24.6133 26.7494 24.6498C26.7607 25.056 26.7715 25.4622 26.7774 25.8685C26.7789 25.9745 26.7618 25.9906 26.6543 26.0026C26.4932 26.0205 26.3309 26.0278 26.1695 26.0433C26.019 26.0578 26.0204 26.0608 26.022 26.2007C26.0305 26.9525 26.038 27.7043 26.0459 28.4562C26.0487 28.7179 26.0518 28.9796 26.0544 29.2413C26.055 29.3021 26.0545 29.363 26.0545 29.4287C25.9865 29.4688 25.9139 29.4609 25.8437 29.4604C25.217 29.4566 24.5903 29.4506 23.9635 29.4476C22.7235 29.4417 21.4835 29.4367 20.2435 29.4324C19.7024 29.4305 19.1613 29.431 18.6202 29.4304C17.994 29.4297 17.3678 29.4294 16.7416 29.4279C16.6289 29.4276 16.5162 29.4189 16.4036 29.4197C15.7548 29.4243 15.1061 29.4337 14.4574 29.4356C13.4654 29.4385 12.4733 29.4367 11.4813 29.4366C11.4459 29.4366 11.4106 29.4332 11.3664 29.431C11.3614 29.3937 11.3534 29.3607 11.353 29.3276C11.3451 28.7069 11.3345 28.0862 11.3325 27.4655C11.3316 27.1996 11.3477 26.9335 11.3584 26.6677C11.3632 26.55 11.3712 26.4323 11.3826 26.3151C11.3901 26.2383 11.3516 26.1997 11.2814 26.1862C11.2154 26.1735 11.1482 26.1662 11.0813 26.1583C10.9522 26.1429 10.823 26.1287 10.6808 26.1126C10.6808 25.793 10.6808 25.4835 10.6808 25.1609ZM14.8102 24.7724C14.9679 24.774 15.1257 24.776 15.2834 24.7771C16.1661 24.7831 17.0487 24.7895 17.9314 24.7945C18.2829 24.7965 18.6345 24.7951 18.986 24.7957C19.5759 24.7968 20.1658 24.7997 20.7557 24.7992C21.3583 24.7987 21.961 24.796 22.5636 24.7914C22.6331 24.7908 22.7024 24.7722 22.7864 24.7599C22.7451 24.6646 22.7154 24.5824 22.6751 24.5053C22.5084 24.1858 22.3393 23.8675 22.1693 23.5496C22.0594 23.3442 21.949 23.139 21.834 22.9363C21.7683 22.8205 21.6823 22.7533 21.5238 22.7541C20.0996 22.7612 18.6754 22.7586 17.2512 22.7588C17.1077 22.7588 16.9642 22.7576 16.8207 22.7594C16.4602 22.764 16.0998 22.7739 15.7393 22.7734C15.5903 22.7732 15.497 22.8245 15.435 22.9604C15.3039 23.2477 15.1693 23.5342 15.0181 23.8119C14.8858 24.0548 14.728 24.2846 14.5837 24.5215C14.546 24.5833 14.5167 24.6499 14.485 24.7115C14.5842 24.7925 14.6872 24.7655 14.8102 24.7724Z"/>
<path d="M8.75733 25.8431C8.75733 27.0625 8.75733 28.2688 8.75733 29.4856C7.49248 29.4856 6.23737 29.4856 4.96458 29.4856C4.96458 29.4361 4.96454 29.3852 4.96459 29.3344C4.96571 28.1058 4.9676 26.8771 4.96783 25.6485C4.96832 22.9721 4.96798 20.2958 4.96796 17.6194C4.96796 17.5757 4.97761 17.5292 4.96562 17.4887C4.9342 17.3827 4.99543 17.3351 5.07867 17.2957C5.34193 17.1713 5.60613 17.0487 5.86798 16.9215C6.52462 16.6026 7.17919 16.2798 7.83661 15.9624C8.11034 15.8303 8.38909 15.7079 8.66588 15.5818C8.68935 15.5711 8.7152 15.5653 8.75733 15.5515C8.75733 18.9864 8.75733 22.4082 8.75733 25.8431Z"/>
<path d="M29.0591 11.8159C29.149 11.7732 29.2187 11.7726 29.3095 11.8161L29.2589 6.20347C29.204 6.17849 29.1592 6.18138 29.1065 6.20581C28.8181 6.33933 28.5291 6.47164 28.2392 6.60203C27.2584 7.0432 26.2901 7.50935 25.3188 7.9697C23.0524 9.04382 20.7743 10.0947 18.5012 11.1557C15.8102 12.4119 13.1199 13.6697 10.4271 14.9225C10.3045 14.9795 10.2646 15.0486 10.2675 15.1739C10.2818 15.7769 10.2891 16.38 10.2989 16.9831L10.2989 16.9863C10.2991 16.9984 10.2993 17.0105 10.3014 17.0223C10.3028 17.0301 10.3084 17.0373 10.3183 17.0573H10.4435C12.9056 17.0573 15.3677 17.057 17.8299 17.0585C17.9182 17.0586 17.9963 17.0409 18.0754 17.0034C19.0912 16.5219 20.108 16.0421 21.1247 15.5623C22.5425 14.8934 23.9606 14.225 25.3783 13.556L25.7273 13.3913C26.8383 12.8671 27.9494 12.3428 29.0591 11.8159Z"/>
<path d="M29.1502 4.59421C29.23 4.55774 29.2947 4.55437 29.3769 4.59276L29.3804 0.0298821C29.3007 -0.0082223 29.2364 -0.0110993 29.1546 0.0282771C28.4888 0.348767 27.8207 0.664863 27.1531 0.981883C25.5468 1.74463 23.9404 2.50696 22.3342 3.26982C20.3921 4.19219 18.4504 5.11513 16.5083 6.03745C14.6796 6.90596 12.8504 7.77365 11.0217 8.64235C9.41555 9.40534 7.81011 10.1698 6.20386 10.9326C4.1688 11.899 2.13322 12.8645 0.0980992 13.8308C0.0679219 13.8451 0.0407767 13.8655 0 13.8905C0.1436 13.961 0.271863 14.0243 0.400444 14.0871C1.64411 14.6938 2.88792 15.3002 4.13127 15.9075C4.19335 15.9379 4.24557 15.9562 4.31945 15.9226C4.71904 15.7409 5.12457 15.5714 5.52347 15.3883C6.61054 14.8893 7.69389 14.3828 8.78155 13.8851C9.42494 13.5906 10.075 13.31 10.7196 13.018C11.2216 12.7906 11.7183 12.5523 12.22 12.3244C12.6847 12.1132 13.1537 11.9107 13.6194 11.7014C13.7454 11.6448 13.8637 11.5721 13.9897 11.5155C14.3166 11.3686 14.6481 11.2313 14.9735 11.0817C16.1375 10.5463 17.2977 10.003 18.4631 9.4706C22.0247 7.84359 25.5882 6.22046 29.1502 4.59421Z"/>
</mask>
<path d="M10.6808 25.1609C10.6829 24.961 10.6849 24.7742 10.687 24.5878C10.7201 24.5777 10.737 24.5675 10.753 24.5686C11.0495 24.5878 11.3457 24.6128 11.6425 24.6267C11.7814 24.6332 11.9214 24.6172 12.061 24.6145C12.3468 24.6089 12.332 24.6553 12.4676 24.3923C12.6543 24.03 12.8559 23.6749 13.0427 23.3127C13.1265 23.15 13.1826 22.974 13.2646 22.8103C13.4111 22.5175 13.566 22.2287 13.7207 21.9398C13.8532 21.6924 13.9903 21.4471 14.1255 21.201C14.1402 21.1741 14.155 21.147 14.1717 21.1213C14.2424 21.0129 14.3403 20.9625 14.4765 20.9634C14.968 20.9666 15.4595 20.9635 15.951 20.9625C17.5473 20.9594 19.1436 20.9587 20.7398 20.9515C21.2713 20.9491 21.8028 20.9313 22.3342 20.9183C22.5132 20.9139 22.6922 20.9048 22.8709 20.8941C22.9992 20.8864 23.0093 20.8884 23.0695 21.0027C23.2436 21.3334 23.4172 21.6643 23.5907 21.9953C23.7417 22.2834 23.8866 22.5746 24.0442 22.8592C24.2806 23.2858 24.5197 23.7113 24.7705 24.13C24.8579 24.276 24.9849 24.3995 25.0905 24.5357C25.1277 24.5836 25.1758 24.577 25.2244 24.5758C25.6478 24.5658 26.071 24.5549 26.4944 24.545C26.5661 24.5433 26.638 24.5447 26.7221 24.5447C26.7309 24.5772 26.7484 24.6133 26.7494 24.6498C26.7607 25.056 26.7715 25.4622 26.7774 25.8685C26.7789 25.9745 26.7618 25.9906 26.6543 26.0026C26.4932 26.0205 26.3309 26.0278 26.1695 26.0433C26.019 26.0578 26.0204 26.0608 26.022 26.2007C26.0305 26.9525 26.038 27.7043 26.0459 28.4562C26.0487 28.7179 26.0518 28.9796 26.0544 29.2413C26.055 29.3021 26.0545 29.363 26.0545 29.4287C25.9865 29.4688 25.9139 29.4609 25.8437 29.4604C25.217 29.4566 24.5903 29.4506 23.9635 29.4476C22.7235 29.4417 21.4835 29.4367 20.2435 29.4324C19.7024 29.4305 19.1613 29.431 18.6202 29.4304C17.994 29.4297 17.3678 29.4294 16.7416 29.4279C16.6289 29.4276 16.5162 29.4189 16.4036 29.4197C15.7548 29.4243 15.1061 29.4337 14.4574 29.4356C13.4654 29.4385 12.4733 29.4367 11.4813 29.4366C11.4459 29.4366 11.4106 29.4332 11.3664 29.431C11.3614 29.3937 11.3534 29.3607 11.353 29.3276C11.3451 28.7069 11.3345 28.0862 11.3325 27.4655C11.3316 27.1996 11.3477 26.9335 11.3584 26.6677C11.3632 26.55 11.3712 26.4323 11.3826 26.3151C11.3901 26.2383 11.3516 26.1997 11.2814 26.1862C11.2154 26.1735 11.1482 26.1662 11.0813 26.1583C10.9522 26.1429 10.823 26.1287 10.6808 26.1126C10.6808 25.793 10.6808 25.4835 10.6808 25.1609ZM14.8102 24.7724C14.9679 24.774 15.1257 24.776 15.2834 24.7771C16.1661 24.7831 17.0487 24.7895 17.9314 24.7945C18.2829 24.7965 18.6345 24.7951 18.986 24.7957C19.5759 24.7968 20.1658 24.7997 20.7557 24.7992C21.3583 24.7987 21.961 24.796 22.5636 24.7914C22.6331 24.7908 22.7024 24.7722 22.7864 24.7599C22.7451 24.6646 22.7154 24.5824 22.6751 24.5053C22.5084 24.1858 22.3393 23.8675 22.1693 23.5496C22.0594 23.3442 21.949 23.139 21.834 22.9363C21.7683 22.8205 21.6823 22.7533 21.5238 22.7541C20.0996 22.7612 18.6754 22.7586 17.2512 22.7588C17.1077 22.7588 16.9642 22.7576 16.8207 22.7594C16.4602 22.764 16.0998 22.7739 15.7393 22.7734C15.5903 22.7732 15.497 22.8245 15.435 22.9604C15.3039 23.2477 15.1693 23.5342 15.0181 23.8119C14.8858 24.0548 14.728 24.2846 14.5837 24.5215C14.546 24.5833 14.5167 24.6499 14.485 24.7115C14.5842 24.7925 14.6872 24.7655 14.8102 24.7724Z" fill="#FFD874"/>
<path d="M8.75733 25.8431C8.75733 27.0625 8.75733 28.2688 8.75733 29.4856C7.49248 29.4856 6.23737 29.4856 4.96458 29.4856C4.96458 29.4361 4.96454 29.3852 4.96459 29.3344C4.96571 28.1058 4.9676 26.8771 4.96783 25.6485C4.96832 22.9721 4.96798 20.2958 4.96796 17.6194C4.96796 17.5757 4.97761 17.5292 4.96562 17.4887C4.9342 17.3827 4.99543 17.3351 5.07867 17.2957C5.34193 17.1713 5.60613 17.0487 5.86798 16.9215C6.52462 16.6026 7.17919 16.2798 7.83661 15.9624C8.11034 15.8303 8.38909 15.7079 8.66588 15.5818C8.68935 15.5711 8.7152 15.5653 8.75733 15.5515C8.75733 18.9864 8.75733 22.4082 8.75733 25.8431Z" fill="#FFD874"/>
<path d="M29.0591 11.8159C29.149 11.7732 29.2187 11.7726 29.3095 11.8161L29.2589 6.20347C29.204 6.17849 29.1592 6.18138 29.1065 6.20581C28.8181 6.33933 28.5291 6.47164 28.2392 6.60203C27.2584 7.0432 26.2901 7.50935 25.3188 7.9697C23.0524 9.04382 20.7743 10.0947 18.5012 11.1557C15.8102 12.4119 13.1199 13.6697 10.4271 14.9225C10.3045 14.9795 10.2646 15.0486 10.2675 15.1739C10.2818 15.7769 10.2891 16.38 10.2989 16.9831L10.2989 16.9863C10.2991 16.9984 10.2993 17.0105 10.3014 17.0223C10.3028 17.0301 10.3084 17.0373 10.3183 17.0573H10.4435C12.9056 17.0573 15.3677 17.057 17.8299 17.0585C17.9182 17.0586 17.9963 17.0409 18.0754 17.0034C19.0912 16.5219 20.108 16.0421 21.1247 15.5623C22.5425 14.8934 23.9606 14.225 25.3783 13.556L25.7273 13.3913C26.8383 12.8671 27.9494 12.3428 29.0591 11.8159Z" fill="#FFD874"/>
<path d="M29.1502 4.59421C29.23 4.55774 29.2947 4.55437 29.3769 4.59276L29.3804 0.0298821C29.3007 -0.0082223 29.2364 -0.0110993 29.1546 0.0282771C28.4888 0.348767 27.8207 0.664863 27.1531 0.981883C25.5468 1.74463 23.9404 2.50696 22.3342 3.26982C20.3921 4.19219 18.4504 5.11513 16.5083 6.03745C14.6796 6.90596 12.8504 7.77365 11.0217 8.64235C9.41555 9.40534 7.81011 10.1698 6.20386 10.9326C4.1688 11.899 2.13322 12.8645 0.0980992 13.8308C0.0679219 13.8451 0.0407767 13.8655 0 13.8905C0.1436 13.961 0.271863 14.0243 0.400444 14.0871C1.64411 14.6938 2.88792 15.3002 4.13127 15.9075C4.19335 15.9379 4.24557 15.9562 4.31945 15.9226C4.71904 15.7409 5.12457 15.5714 5.52347 15.3883C6.61054 14.8893 7.69389 14.3828 8.78155 13.8851C9.42494 13.5906 10.075 13.31 10.7196 13.018C11.2216 12.7906 11.7183 12.5523 12.22 12.3244C12.6847 12.1132 13.1537 11.9107 13.6194 11.7014C13.7454 11.6448 13.8637 11.5721 13.9897 11.5155C14.3166 11.3686 14.6481 11.2313 14.9735 11.0817C16.1375 10.5463 17.2977 10.003 18.4631 9.4706C22.0247 7.84359 25.5882 6.22046 29.1502 4.59421Z" fill="#FFD874"/>
<path d="M10.6808 25.1609C10.6829 24.961 10.6849 24.7742 10.687 24.5878C10.7201 24.5777 10.737 24.5675 10.753 24.5686C11.0495 24.5878 11.3457 24.6128 11.6425 24.6267C11.7814 24.6332 11.9214 24.6172 12.061 24.6145C12.3468 24.6089 12.332 24.6553 12.4676 24.3923C12.6543 24.03 12.8559 23.6749 13.0427 23.3127C13.1265 23.15 13.1826 22.974 13.2646 22.8103C13.4111 22.5175 13.566 22.2287 13.7207 21.9398C13.8532 21.6924 13.9903 21.4471 14.1255 21.201C14.1402 21.1741 14.155 21.147 14.1717 21.1213C14.2424 21.0129 14.3403 20.9625 14.4765 20.9634C14.968 20.9666 15.4595 20.9635 15.951 20.9625C17.5473 20.9594 19.1436 20.9587 20.7398 20.9515C21.2713 20.9491 21.8028 20.9313 22.3342 20.9183C22.5132 20.9139 22.6922 20.9048 22.8709 20.8941C22.9992 20.8864 23.0093 20.8884 23.0695 21.0027C23.2436 21.3334 23.4172 21.6643 23.5907 21.9953C23.7417 22.2834 23.8866 22.5746 24.0442 22.8592C24.2806 23.2858 24.5197 23.7113 24.7705 24.13C24.8579 24.276 24.9849 24.3995 25.0905 24.5357C25.1277 24.5836 25.1758 24.577 25.2244 24.5758C25.6478 24.5658 26.071 24.5549 26.4944 24.545C26.5661 24.5433 26.638 24.5447 26.7221 24.5447C26.7309 24.5772 26.7484 24.6133 26.7494 24.6498C26.7607 25.056 26.7715 25.4622 26.7774 25.8685C26.7789 25.9745 26.7618 25.9906 26.6543 26.0026C26.4932 26.0205 26.3309 26.0278 26.1695 26.0433C26.019 26.0578 26.0204 26.0608 26.022 26.2007C26.0305 26.9525 26.038 27.7043 26.0459 28.4562C26.0487 28.7179 26.0518 28.9796 26.0544 29.2413C26.055 29.3021 26.0545 29.363 26.0545 29.4287C25.9865 29.4688 25.9139 29.4609 25.8437 29.4604C25.217 29.4566 24.5903 29.4506 23.9635 29.4476C22.7235 29.4417 21.4835 29.4367 20.2435 29.4324C19.7024 29.4305 19.1613 29.431 18.6202 29.4304C17.994 29.4297 17.3678 29.4294 16.7416 29.4279C16.6289 29.4276 16.5162 29.4189 16.4036 29.4197C15.7548 29.4243 15.1061 29.4337 14.4574 29.4356C13.4654 29.4385 12.4733 29.4367 11.4813 29.4366C11.4459 29.4366 11.4106 29.4332 11.3664 29.431C11.3614 29.3937 11.3534 29.3607 11.353 29.3276C11.3451 28.7069 11.3345 28.0862 11.3325 27.4655C11.3316 27.1996 11.3477 26.9335 11.3584 26.6677C11.3632 26.55 11.3712 26.4323 11.3826 26.3151C11.3901 26.2383 11.3516 26.1997 11.2814 26.1862C11.2154 26.1735 11.1482 26.1662 11.0813 26.1583C10.9522 26.1429 10.823 26.1287 10.6808 26.1126C10.6808 25.793 10.6808 25.4835 10.6808 25.1609ZM14.8102 24.7724C14.9679 24.774 15.1257 24.776 15.2834 24.7771C16.1661 24.7831 17.0487 24.7895 17.9314 24.7945C18.2829 24.7965 18.6345 24.7951 18.986 24.7957C19.5759 24.7968 20.1658 24.7997 20.7557 24.7992C21.3583 24.7987 21.961 24.796 22.5636 24.7914C22.6331 24.7908 22.7024 24.7722 22.7864 24.7599C22.7451 24.6646 22.7154 24.5824 22.6751 24.5053C22.5084 24.1858 22.3393 23.8675 22.1693 23.5496C22.0594 23.3442 21.949 23.139 21.834 22.9363C21.7683 22.8205 21.6823 22.7533 21.5238 22.7541C20.0996 22.7612 18.6754 22.7586 17.2512 22.7588C17.1077 22.7588 16.9642 22.7576 16.8207 22.7594C16.4602 22.764 16.0998 22.7739 15.7393 22.7734C15.5903 22.7732 15.497 22.8245 15.435 22.9604C15.3039 23.2477 15.1693 23.5342 15.0181 23.8119C14.8858 24.0548 14.728 24.2846 14.5837 24.5215C14.546 24.5833 14.5167 24.6499 14.485 24.7115C14.5842 24.7925 14.6872 24.7655 14.8102 24.7724Z" stroke="#080807" stroke-width="0.5" mask="url(#path-1-inside-1_24_1254)"/>
<path d="M8.75733 25.8431C8.75733 27.0625 8.75733 28.2688 8.75733 29.4856C7.49248 29.4856 6.23737 29.4856 4.96458 29.4856C4.96458 29.4361 4.96454 29.3852 4.96459 29.3344C4.96571 28.1058 4.9676 26.8771 4.96783 25.6485C4.96832 22.9721 4.96798 20.2958 4.96796 17.6194C4.96796 17.5757 4.97761 17.5292 4.96562 17.4887C4.9342 17.3827 4.99543 17.3351 5.07867 17.2957C5.34193 17.1713 5.60613 17.0487 5.86798 16.9215C6.52462 16.6026 7.17919 16.2798 7.83661 15.9624C8.11034 15.8303 8.38909 15.7079 8.66588 15.5818C8.68935 15.5711 8.7152 15.5653 8.75733 15.5515C8.75733 18.9864 8.75733 22.4082 8.75733 25.8431Z" stroke="#080807" stroke-width="0.5" mask="url(#path-1-inside-1_24_1254)"/>
<path d="M29.0591 11.8159C29.149 11.7732 29.2187 11.7726 29.3095 11.8161L29.2589 6.20347C29.204 6.17849 29.1592 6.18138 29.1065 6.20581C28.8181 6.33933 28.5291 6.47164 28.2392 6.60203C27.2584 7.0432 26.2901 7.50935 25.3188 7.9697C23.0524 9.04382 20.7743 10.0947 18.5012 11.1557C15.8102 12.4119 13.1199 13.6697 10.4271 14.9225C10.3045 14.9795 10.2646 15.0486 10.2675 15.1739C10.2818 15.7769 10.2891 16.38 10.2989 16.9831L10.2989 16.9863C10.2991 16.9984 10.2993 17.0105 10.3014 17.0223C10.3028 17.0301 10.3084 17.0373 10.3183 17.0573H10.4435C12.9056 17.0573 15.3677 17.057 17.8299 17.0585C17.9182 17.0586 17.9963 17.0409 18.0754 17.0034C19.0912 16.5219 20.108 16.0421 21.1247 15.5623C22.5425 14.8934 23.9606 14.225 25.3783 13.556L25.7273 13.3913C26.8383 12.8671 27.9494 12.3428 29.0591 11.8159Z" stroke="#080807" stroke-width="0.5" mask="url(#path-1-inside-1_24_1254)"/>
<path d="M29.1502 4.59421C29.23 4.55774 29.2947 4.55437 29.3769 4.59276L29.3804 0.0298821C29.3007 -0.0082223 29.2364 -0.0110993 29.1546 0.0282771C28.4888 0.348767 27.8207 0.664863 27.1531 0.981883C25.5468 1.74463 23.9404 2.50696 22.3342 3.26982C20.3921 4.19219 18.4504 5.11513 16.5083 6.03745C14.6796 6.90596 12.8504 7.77365 11.0217 8.64235C9.41555 9.40534 7.81011 10.1698 6.20386 10.9326C4.1688 11.899 2.13322 12.8645 0.0980992 13.8308C0.0679219 13.8451 0.0407767 13.8655 0 13.8905C0.1436 13.961 0.271863 14.0243 0.400444 14.0871C1.64411 14.6938 2.88792 15.3002 4.13127 15.9075C4.19335 15.9379 4.24557 15.9562 4.31945 15.9226C4.71904 15.7409 5.12457 15.5714 5.52347 15.3883C6.61054 14.8893 7.69389 14.3828 8.78155 13.8851C9.42494 13.5906 10.075 13.31 10.7196 13.018C11.2216 12.7906 11.7183 12.5523 12.22 12.3244C12.6847 12.1132 13.1537 11.9107 13.6194 11.7014C13.7454 11.6448 13.8637 11.5721 13.9897 11.5155C14.3166 11.3686 14.6481 11.2313 14.9735 11.0817C16.1375 10.5463 17.2977 10.003 18.4631 9.4706C22.0247 7.84359 25.5882 6.22046 29.1502 4.59421Z" stroke="#080807" stroke-width="0.5" mask="url(#path-1-inside-1_24_1254)"/>
</g>
<g id="&#208;&#176;&#208;&#178;&#209;&#130;&#208;&#190;&#208;&#186;&#208;&#176;&#209;&#129;&#208;&#186;&#208;&#176;&#208;&#180;">
<path id="Vector_2" d="M162.485 32.68H160.541V28.744H151.085V32.68H149.141V26.944H150.485C150.869 26.208 151.221 25.072 151.541 23.536C151.877 21.984 152.045 20.472 152.045 19V16.36H160.877V26.944H162.485V32.68ZM158.837 26.944V18.16H154.036V19.192C154.036 20.648 153.885 22.128 153.581 23.632C153.293 25.12 152.965 26.224 152.597 26.944H158.837Z" fill="white"/>
<path id="Vector_3" d="M148.562 27.1119V28.6959C148.146 28.8559 147.682 28.9359 147.17 28.9359C146.002 28.9359 145.402 28.3279 145.37 27.1119C144.202 28.4239 142.706 29.0799 140.882 29.0799C139.666 29.0799 138.698 28.7679 137.978 28.1439C137.274 27.5199 136.922 26.6639 136.922 25.5759C136.922 23.3679 138.386 22.0799 141.314 21.7119C141.506 21.6799 141.786 21.6479 142.154 21.6159C143.546 21.4559 144.402 21.2719 144.722 21.0639C145.09 20.8079 145.274 20.3679 145.274 19.7439C145.274 18.3839 144.338 17.7039 142.466 17.7039C141.506 17.7039 140.778 17.9039 140.282 18.3039C139.786 18.6879 139.49 19.3279 139.394 20.2239H137.402C137.434 18.8959 137.906 17.8639 138.818 17.1279C139.73 16.3919 140.986 16.0239 142.586 16.0239C144.33 16.0239 145.626 16.4239 146.474 17.2239C146.746 17.4799 146.946 17.8159 147.074 18.2319C147.202 18.6479 147.274 18.9919 147.29 19.2639C147.306 19.5199 147.314 19.9119 147.314 20.4399C147.314 21.0479 147.298 21.9679 147.266 23.1999C147.234 24.4319 147.218 25.3519 147.218 25.9599C147.218 26.4079 147.274 26.7279 147.386 26.9199C147.514 27.0959 147.738 27.1839 148.058 27.1839C148.186 27.1839 148.354 27.1599 148.562 27.1119ZM145.274 22.3119C145.13 22.4239 144.978 22.5199 144.818 22.5999C144.658 22.6799 144.45 22.7439 144.194 22.7919C143.954 22.8399 143.786 22.8799 143.69 22.9119C143.61 22.9279 143.402 22.9599 143.066 23.0079C142.73 23.0399 142.554 23.0559 142.538 23.0559C142.042 23.1199 141.714 23.1679 141.554 23.1999C141.41 23.2159 141.122 23.2799 140.69 23.3919C140.274 23.5039 139.978 23.6319 139.802 23.7759C139.626 23.9199 139.45 24.1359 139.274 24.4239C139.114 24.6959 139.034 25.0239 139.034 25.4079C139.034 26.0479 139.25 26.5519 139.682 26.9199C140.13 27.2879 140.738 27.4719 141.506 27.4719C142.482 27.4719 143.354 27.1839 144.122 26.6079C144.89 26.0319 145.274 25.3519 145.274 24.5679V22.3119Z" fill="white"/>
<path id="Vector_4" d="M136.237 28.744H133.645L129.133 22.648L127.189 24.544V28.744H125.149V16.36H127.189V22.264L132.853 16.36H135.589L130.597 21.232L136.237 28.744Z" fill="white"/>
<path id="Vector_5" d="M122.914 24.232C122.738 25.72 122.17 26.904 121.21 27.784C120.266 28.664 119.034 29.104 117.514 29.104C115.642 29.104 114.194 28.528 113.17 27.376C112.146 26.208 111.634 24.656 111.634 22.72C111.634 20.656 112.17 19.024 113.242 17.824C114.314 16.608 115.762 16 117.586 16C119.106 16 120.322 16.384 121.234 17.152C122.146 17.904 122.682 18.984 122.842 20.392H120.73C120.362 18.6 119.322 17.704 117.61 17.704C116.426 17.704 115.49 18.144 114.802 19.024C114.114 19.888 113.77 21.064 113.77 22.552C113.77 24.056 114.098 25.24 114.754 26.104C115.41 26.968 116.314 27.4 117.466 27.4C118.394 27.4 119.146 27.128 119.722 26.584C120.314 26.04 120.69 25.256 120.85 24.232H122.914Z" fill="white"/>
<path id="Vector_6" d="M110.335 27.1119V28.6959C109.919 28.8559 109.455 28.9359 108.943 28.9359C107.775 28.9359 107.175 28.3279 107.143 27.1119C105.975 28.4239 104.479 29.0799 102.655 29.0799C101.439 29.0799 100.471 28.7679 99.7513 28.1439C99.0473 27.5199 98.6953 26.6639 98.6953 25.5759C98.6953 23.3679 100.159 22.0799 103.087 21.7119C103.279 21.6799 103.559 21.6479 103.927 21.6159C105.319 21.4559 106.175 21.2719 106.495 21.0639C106.863 20.8079 107.047 20.3679 107.047 19.7439C107.047 18.3839 106.111 17.7039 104.239 17.7039C103.279 17.7039 102.551 17.9039 102.055 18.3039C101.559 18.6879 101.263 19.3279 101.167 20.2239H99.1753C99.2073 18.8959 99.6793 17.8639 100.591 17.1279C101.503 16.3919 102.759 16.0239 104.359 16.0239C106.103 16.0239 107.399 16.4239 108.247 17.2239C108.519 17.4799 108.719 17.8159 108.847 18.2319C108.975 18.6479 109.047 18.9919 109.063 19.2639C109.079 19.5199 109.087 19.9119 109.087 20.4399C109.087 21.0479 109.071 21.9679 109.039 23.1999C109.007 24.4319 108.991 25.3519 108.991 25.9599C108.991 26.4079 109.047 26.7279 109.159 26.9199C109.287 27.0959 109.511 27.1839 109.831 27.1839C109.959 27.1839 110.127 27.1599 110.335 27.1119ZM107.047 22.3119C106.903 22.4239 106.751 22.5199 106.591 22.5999C106.431 22.6799 106.223 22.7439 105.967 22.7919C105.727 22.8399 105.559 22.8799 105.463 22.9119C105.383 22.9279 105.175 22.9599 104.839 23.0079C104.503 23.0399 104.327 23.0559 104.311 23.0559C103.815 23.1199 103.487 23.1679 103.327 23.1999C103.183 23.2159 102.895 23.2799 102.463 23.3919C102.047 23.5039 101.751 23.6319 101.575 23.7759C101.399 23.9199 101.223 24.1359 101.047 24.4239C100.887 24.6959 100.807 25.0239 100.807 25.4079C100.807 26.0479 101.023 26.5519 101.455 26.9199C101.903 27.2879 102.511 27.4719 103.279 27.4719C104.255 27.4719 105.127 27.1839 105.895 26.6079C106.663 26.0319 107.047 25.3519 107.047 24.5679V22.3119Z" fill="white"/>
<path id="Vector_7" d="M98.01 28.744H95.418L90.906 22.648L88.962 24.544V28.744H86.922V16.36H88.962V22.264L94.626 16.36H97.362L92.37 21.232L98.01 28.744Z" fill="white"/>
<path id="Vector_8" d="M74.1247 17.776C75.2127 16.592 76.6927 16 78.5647 16C80.4367 16 81.8927 16.568 82.9327 17.704C83.9727 18.84 84.4927 20.432 84.4927 22.48C84.4927 24.576 83.9727 26.208 82.9327 27.376C81.8927 28.544 80.4287 29.128 78.5407 29.128C76.6527 29.128 75.1727 28.552 74.1007 27.4C73.0287 26.248 72.4927 24.648 72.4927 22.6C72.4927 20.568 73.0367 18.96 74.1247 17.776ZM81.3487 19.024C80.6607 18.144 79.7167 17.704 78.5167 17.704C77.3167 17.704 76.3647 18.144 75.6607 19.024C74.9567 19.904 74.6047 21.08 74.6047 22.552C74.6047 24.072 74.9487 25.264 75.6367 26.128C76.3407 26.976 77.3167 27.4 78.5647 27.4C79.7647 27.4 80.7007 26.968 81.3727 26.104C82.0607 25.24 82.4047 24.048 82.4047 22.528C82.4047 21.056 82.0527 19.888 81.3487 19.024Z" fill="white"/>
<path id="Vector_9" d="M71.9332 18.16H67.4932V28.744H65.4532V18.16H61.0132V16.36H71.9332V18.16Z" fill="white"/>
<path id="Vector_10" d="M49.5146 28.744V16.36H55.2506C56.0666 16.36 56.7626 16.432 57.3386 16.576C57.9146 16.704 58.4186 17 58.8506 17.464C59.2826 17.928 59.4986 18.56 59.4986 19.36C59.4986 20.576 58.8906 21.464 57.6746 22.024V22.048C58.4106 22.192 58.9866 22.536 59.4026 23.08C59.8186 23.608 60.0266 24.28 60.0266 25.096C60.0266 26.152 59.6746 27.024 58.9706 27.712C58.2666 28.4 57.3626 28.744 56.2586 28.744H49.5146ZM55.0346 21.352C55.8826 21.352 56.4826 21.216 56.8346 20.944C57.2026 20.656 57.3866 20.24 57.3866 19.696C57.3866 19.152 57.2106 18.752 56.8586 18.496C56.5066 18.24 55.8986 18.112 55.0346 18.112H51.5066V21.352H55.0346ZM51.5066 23.08V26.992H55.8746C56.5146 26.992 57.0106 26.8 57.3626 26.416C57.7306 26.032 57.9146 25.536 57.9146 24.928C57.9146 23.696 57.1146 23.08 55.5146 23.08H51.5066Z" fill="white"/>
<path id="Vector_11" d="M47.64 27.1119V28.6959C47.224 28.8559 46.76 28.9359 46.248 28.9359C45.08 28.9359 44.48 28.3279 44.448 27.1119C43.28 28.4239 41.784 29.0799 39.96 29.0799C38.744 29.0799 37.776 28.7679 37.056 28.1439C36.352 27.5199 36 26.6639 36 25.5759C36 23.3679 37.464 22.0799 40.392 21.7119C40.584 21.6799 40.864 21.6479 41.232 21.6159C42.624 21.4559 43.48 21.2719 43.8 21.0639C44.168 20.8079 44.352 20.3679 44.352 19.7439C44.352 18.3839 43.416 17.7039 41.544 17.7039C40.584 17.7039 39.856 17.9039 39.36 18.3039C38.864 18.6879 38.568 19.3279 38.472 20.2239H36.48C36.512 18.8959 36.984 17.8639 37.896 17.1279C38.808 16.3919 40.064 16.0239 41.664 16.0239C43.408 16.0239 44.704 16.4239 45.552 17.2239C45.824 17.4799 46.024 17.8159 46.152 18.2319C46.28 18.6479 46.352 18.9919 46.368 19.2639C46.384 19.5199 46.392 19.9119 46.392 20.4399C46.392 21.0479 46.376 21.9679 46.344 23.1999C46.312 24.4319 46.296 25.3519 46.296 25.9599C46.296 26.4079 46.352 26.7279 46.464 26.9199C46.592 27.0959 46.816 27.1839 47.136 27.1839C47.264 27.1839 47.432 27.1599 47.64 27.1119ZM44.352 22.3119C44.208 22.4239 44.056 22.5199 43.896 22.5999C43.736 22.6799 43.528 22.7439 43.272 22.7919C43.032 22.8399 42.864 22.8799 42.768 22.9119C42.688 22.9279 42.48 22.9599 42.144 23.0079C41.808 23.0399 41.632 23.0559 41.616 23.0559C41.12 23.1199 40.792 23.1679 40.632 23.1999C40.488 23.2159 40.2 23.2799 39.768 23.3919C39.352 23.5039 39.056 23.6319 38.88 23.7759C38.704 23.9199 38.528 24.1359 38.352 24.4239C38.192 24.6959 38.112 25.0239 38.112 25.4079C38.112 26.0479 38.328 26.5519 38.76 26.9199C39.208 27.2879 39.816 27.4719 40.584 27.4719C41.56 27.4719 42.432 27.1839 43.2 26.6079C43.968 26.0319 44.352 25.3519 44.352 24.5679V22.3119Z" fill="white"/>
</g>
</g>
</svg>
