<svg width="100" height="100" viewBox="0 0 100 100" fill="none" xmlns="http://www.w3.org/2000/svg">
<g id="Frame 2087324639">
<rect width="100" height="100" fill="#FFD874"/>
<g id="Vector">
<path d="M39.8121 69.1997C39.8163 68.793 39.8205 68.413 39.8246 68.0335C39.8924 68.0131 39.9267 67.9924 39.9595 67.9945C40.5651 68.0336 41.17 68.0844 41.776 68.1128C42.0598 68.1261 42.3456 68.0935 42.6306 68.0879C43.2144 68.0766 43.1842 68.171 43.461 67.6358C43.8423 66.8986 44.2539 66.176 44.6354 65.4389C44.8067 65.1079 44.9211 64.7496 45.0885 64.4165C45.3878 63.8208 45.7042 63.233 46.0201 62.6452C46.2908 62.1416 46.5706 61.6426 46.8467 61.1418C46.8768 61.087 46.9069 61.032 46.9412 60.9796C47.0854 60.759 47.2855 60.6566 47.5636 60.6584C48.5673 60.6648 49.5711 60.6585 50.5748 60.6565C53.8347 60.6501 57.0946 60.6487 60.3544 60.6341C61.4398 60.6293 62.5251 60.5929 63.6103 60.5665C63.9759 60.5576 64.3414 60.5392 64.7064 60.5173C64.9684 60.5016 64.989 60.5057 65.1119 60.7382C65.4674 61.4112 65.8221 62.0846 66.1764 62.7582C66.4847 63.3443 66.7805 63.937 67.1025 64.516C67.5851 65.3842 68.0735 66.2499 68.5856 67.102C68.7642 67.3992 69.0235 67.6504 69.2393 67.9276C69.3152 68.0251 69.4135 68.0116 69.5127 68.0092C70.3772 67.9888 71.2416 67.9667 72.1061 67.9464C72.2527 67.943 72.3994 67.9459 72.5712 67.9459C72.5892 68.012 72.6249 68.0854 72.627 68.1597C72.65 68.9863 72.6721 69.813 72.6841 70.6398C72.6872 70.8553 72.6524 70.8882 72.4327 70.9125C72.1037 70.949 71.7723 70.9638 71.4426 70.9954C71.1354 71.0248 71.1382 71.0309 71.1415 71.3156C71.1589 72.8455 71.1741 74.3754 71.1903 75.9053C71.1959 76.4378 71.2023 76.9704 71.2077 77.5029C71.209 77.6267 71.2079 77.7506 71.2079 77.8843C71.069 77.9659 70.9206 77.9497 70.7773 77.9489C69.4974 77.9411 68.2176 77.9289 66.9377 77.9228C64.4054 77.9107 61.8731 77.9007 59.3408 77.8918C58.2357 77.8879 57.1307 77.8889 56.0257 77.8877C54.7469 77.8863 53.468 77.8857 52.1892 77.8827C51.9591 77.8821 51.729 77.8644 51.4989 77.866C50.1741 77.8753 48.8494 77.8944 47.5246 77.8983C45.4987 77.9043 43.4727 77.9006 41.4468 77.9004C41.3746 77.9004 41.3024 77.8935 41.2122 77.889C41.202 77.8132 41.1856 77.7459 41.1848 77.6785C41.1686 76.4155 41.1471 75.1524 41.143 73.8893C41.1412 73.3482 41.174 72.8069 41.1959 72.2659C41.2056 72.0265 41.222 71.787 41.2453 71.5484C41.2606 71.3921 41.182 71.3137 41.0386 71.2862C40.9038 71.2604 40.7666 71.2456 40.63 71.2293C40.3664 71.1981 40.1024 71.1692 39.8121 71.1363C39.8121 70.486 39.8121 69.8562 39.8121 69.1997ZM48.2451 68.4092C48.5672 68.4124 48.8893 68.4166 49.2114 68.4188C51.0139 68.4311 52.8165 68.444 54.619 68.4542C55.3369 68.4582 56.0549 68.4554 56.7728 68.4567C57.9774 68.4589 59.1821 68.4649 60.3867 68.4638C61.6175 68.4628 62.8482 68.4572 64.0788 68.4478C64.2207 68.4467 64.3622 68.4089 64.5338 68.3837C64.4495 68.1898 64.3888 68.0225 64.3066 67.8657C63.966 67.2157 63.6207 66.5679 63.2736 65.9211C63.0492 65.503 62.8238 65.0854 62.5889 64.6729C62.4547 64.4373 62.279 64.3006 61.9554 64.3022C59.0469 64.3167 56.1384 64.3113 53.2299 64.3117C52.9369 64.3118 52.6438 64.3093 52.3508 64.313C51.6147 64.3223 50.8785 64.3424 50.1424 64.3414C49.8381 64.341 49.6476 64.4454 49.5209 64.722C49.2532 65.3066 48.9783 65.8897 48.6696 66.4547C48.3995 66.9491 48.0771 67.4166 47.7824 67.8986C47.7055 68.0244 47.6457 68.16 47.581 68.2853C47.7836 68.4501 47.9938 68.3951 48.2451 68.4092Z" fill="#0E0E0C"/>
<path d="M35.884 70.588C35.884 73.0694 35.884 75.5241 35.884 78C33.301 78 30.7378 78 28.1385 78C28.1385 77.8993 28.1385 77.7959 28.1386 77.6924C28.1409 75.1923 28.1447 72.6921 28.1452 70.192C28.1462 64.7459 28.1455 59.2997 28.1454 53.8536C28.1454 53.7646 28.1651 53.67 28.1407 53.5877C28.0765 53.372 28.2015 53.2751 28.3715 53.195C28.9091 52.9418 29.4487 52.6923 29.9834 52.4335C31.3244 51.7846 32.6612 51.1276 34.0037 50.4819C34.5627 50.213 35.132 49.964 35.6972 49.7072C35.7452 49.6855 35.798 49.6737 35.884 49.6458C35.884 56.6354 35.884 63.5983 35.884 70.588Z" fill="#0E0E0C"/>
<path d="M77.3438 42.044C77.5273 41.9572 77.6697 41.9561 77.8551 42.0446L77.7517 30.6234C77.6396 30.5726 77.5483 30.5785 77.4405 30.6282C76.8516 30.8999 76.2615 31.1691 75.6695 31.4344C73.6664 32.3322 71.6891 33.2807 69.7054 34.2175C65.077 36.4032 60.4247 38.5417 55.7827 40.7008C50.2871 43.2569 44.7931 45.8165 39.294 48.3657C39.0436 48.4818 38.962 48.6224 38.9681 48.8774C38.9973 50.1044 39.0121 51.3317 39.0321 52.5589L39.0322 52.5654C39.0326 52.5899 39.033 52.6146 39.0373 52.6386C39.0401 52.6546 39.0515 52.6691 39.0718 52.7099H39.3274C44.3555 52.7099 49.3836 52.7093 54.4117 52.7123C54.5921 52.7124 54.7516 52.6764 54.9131 52.6001C56.9876 51.6202 59.064 50.644 61.1404 49.6677C64.0357 48.3064 66.9317 46.9464 69.827 45.585L70.5396 45.2499C72.8086 44.1831 75.0776 43.1163 77.3438 42.044Z" fill="#0E0E0C"/>
<path d="M77.5297 27.3487C77.6928 27.2745 77.8248 27.2677 77.9927 27.3458L78 18.0608C77.8371 17.9833 77.7058 17.9774 77.5388 18.0575C76.179 18.7097 74.8147 19.3529 73.4513 19.998C70.1711 21.5501 66.8904 23.1014 63.6102 24.6537C59.6443 26.5307 55.6789 28.4087 51.7129 30.2856C47.9782 32.0529 44.2427 33.8186 40.5083 35.5863C37.2282 37.1389 33.9496 38.6944 30.6694 40.2467C26.5134 42.2133 22.3564 44.1778 18.2003 46.1442C18.1387 46.1734 18.0833 46.2147 18 46.2657C18.2933 46.4092 18.5552 46.538 18.8178 46.6657C21.3576 47.9003 23.8976 49.1343 26.4368 50.3702C26.5635 50.4319 26.6702 50.4692 26.8211 50.4008C27.6371 50.031 28.4653 49.6861 29.2799 49.3135C31.4999 48.2982 33.7123 47.2674 35.9335 46.2546C37.2474 45.6555 38.575 45.0844 39.8914 44.4903C40.9165 44.0276 41.9308 43.5427 42.9553 43.0788C43.9045 42.6491 44.8622 42.2371 45.8132 41.8111C46.0705 41.6959 46.3122 41.5481 46.5694 41.4328C47.2369 41.1339 47.9139 40.8546 48.5785 40.55C50.9556 39.4606 53.3248 38.355 55.7049 37.2717C62.9783 33.9609 70.2556 30.658 77.5297 27.3487Z" fill="#0E0E0C"/>
</g>
</g>
</svg>
