<svg fill="none" height="32" viewBox="0 0 32 32" width="32" xmlns="http://www.w3.org/2000/svg" xmlns:xlink="http://www.w3.org/1999/xlink"><clipPath id="a"><path d="m0 0h32v32h-32z"/></clipPath><g clip-path="url(#a)"><path d="m16.7402 2.66669c1.0178 2.80017 3.0162 5.16174 5.6442 6.67013 2.628 1.50838 5.7177 2.06718 8.7267 1.57828-.1156 1.3353-.6642 2.6003-1.5667 3.612s-2.112 1.7177-3.4537 2.0161v9.9817l2.8828.0014v2.8071h-25.94552v-2.8071h2.88284v-9.9831c-1.34177-.2985-2.55136-1.0046-3.45405-2.0162-.90269-1.0117-1.45174-2.2765-1.567854-3.6119 3.009274.4897 6.099534-.0686 8.728134-1.57672 2.62865-1.50817 4.62755-3.86983 5.64565-6.67029h1.4775zm6.4676 14.03371h-14.41414v9.8245h14.41414z" fill="#ffd874"/></g></svg>