<svg width="32" height="32" viewBox="0 0 32 32" fill="none" xmlns="http://www.w3.org/2000/svg">
<g id="ancient-pavilion-svgrepo-com 2" clip-path="url(#clip0_24_1313)">
<g id="Group">
<path id="Vector" d="M16.7402 2.66669C17.758 5.46686 19.7564 7.82843 22.3844 9.33682C25.0124 10.8452 28.1021 11.404 31.1111 10.9151C30.9955 12.2504 30.4469 13.5154 29.5444 14.5271C28.6419 15.5388 27.4324 16.2448 26.0907 16.5432V26.5249L28.9735 26.5263V29.3334H3.02798V26.5263H5.91082V16.5432C4.56905 16.2447 3.35946 15.5386 2.45677 14.527C1.55408 13.5153 1.00503 12.2505 0.888916 10.9151C3.89819 11.4048 6.98845 10.8465 9.61705 9.33838C12.2457 7.83021 14.2446 5.46855 15.2627 2.66809H16.7402V2.66669ZM23.2078 16.7004H8.79366V26.5249H23.2078V16.7004Z" fill="#FFD874"/>
</g>
</g>
<defs>
<clipPath id="clip0_24_1313">
<rect width="32" height="32" fill="white"/>
</clipPath>
</defs>
</svg>
