<svg fill="none" height="60" viewBox="0 0 48 60" width="48" xmlns="http://www.w3.org/2000/svg" xmlns:xlink="http://www.w3.org/1999/xlink"><clipPath id="a"><path d="m-14.4828 0h62.069v62.069h-62.069z"/></clipPath><g clip-path="url(#a)"><path d="m2 31.0065c.01242-1.3564.44113-2.6763 1.22813-3.7811.78701-1.1049 1.89434-1.9414 3.17223-2.3964l3.57387-9.2254c.31837-.7522.84587-1.3974 1.51987-1.8589s1.4662-.7199 2.2827-.7447h22.5277c.8165.0248 1.6087.2832 2.2827.7447s1.2015 1.1067 1.5199 1.8589l3.5771 9.2254c1.2773.4556 2.3839 1.2923 3.1703 2.3971s1.2146 2.4244 1.2268 3.7804v9.3104c-.0008.4113-.1646.8054-.4554 1.0963-.2909.2908-.685.4545-1.0963.4554h-2.192v4.825c-.0009.4113-.1647.8055-.4555 1.0963s-.685.4546-1.0962.4555h-3.195c-.4112-.0009-.8054-.1647-1.0963-.4555-.2908-.2908-.4545-.685-.4554-1.0963v-4.825h-25.9971v4.825c-.0009.4113-.1646.8055-.4554 1.0963-.2909.2908-.685.4546-1.0963.4555h-3.19494c-.41127-.0009-.80546-.1647-1.09628-.4555s-.45458-.685-.45544-1.0963v-4.825h-2.19202c-.41127-.0009-.80546-.1646-1.09628-.4554-.29082-.2909-.45458-.685-.45544-1.0963zm10.2577.0196c0-.6655-.1973-1.316-.5671-1.8693-.3697-.5534-.8952-.9847-1.51-1.2393-.61486-.2547-1.29141-.3213-1.94412-.1915-.6527.1298-1.25225.4503-1.72282.9209-.47058.4705-.79104 1.0701-.92088 1.7228-.12983.6527-.06319 1.3292.19148 1.9441.25467.6148.68595 1.1403 1.23928 1.5101.55334.3697 1.20389.567 1.86938.567.44187 0 .87942-.087 1.28768-.2561.4082-.1691.7791-.4169 1.0916-.7294.3124-.3124.5603-.6834.7294-1.0916s.2561-.8458.2561-1.2877zm-1.8196-6.6087h29.1986l-2.9075-7.5038c-.1035-.1468-.2567-.2512-.4312-.294h-22.5212c-.1721.0442-.3228.1485-.4247.294zm34.1085 6.6087c0-.6656-.1974-1.3163-.5673-1.8697-.3698-.5534-.8955-.9847-1.5106-1.2392-.615-.2546-1.2917-.3211-1.9445-.191s-1.2523.4509-1.7228.9218c-.4704.4709-.7906 1.0708-.9201 1.7237-.1294.6529-.0623 1.3296.1928 1.9444.2552.6147.687 1.14 1.2408 1.5093.5537.3694 1.2046.5662 1.8702.5655.8924 0 1.7483-.3545 2.3793-.9855s.9822-1.4869.9822-2.3793z" fill="#080a08"/></g></svg>