<svg fill="none" height="18" viewBox="0 0 18 18" width="18" xmlns="http://www.w3.org/2000/svg"><path d="m3.00056 5.77163c0 .52762.1935 1.10756.43932 1.72293.24581.61538.5625 1.19532.80887 1.63463.66825 1.16041 1.52944 2.30291 2.51381 3.25181.98438.9489 2.14481 1.7404 3.44534 2.2151.756.2987 1.512.6328 2.3557.6328.4219 0 1.0198-.158 1.5643-.387.5277-.2283 1.0018-.5799 1.1779-1.0018.0703-.158.1581-.369.2109-.6153.0529-.2284.0878-.4574.0878-.6154 0-.0878 0-.1761-.0174-.1935-.0529-.1058-.1761-.1935-.3167-.2813-.3167-.158-.369-.2109-.8438-.4922-.4922-.2812-1.0018-.5979-1.4417-.8263-.2109-.1232-.3515-.176-.4044-.176-.2813 0-.6328.387-.9315.8088-.3167.4219-.6682.8089-.9141.8089-.1231 0-.2463-.0529-.387-.1406-.1406-.0878-.2812-.1581-.36896-.2109-1.54688-.8792-2.58413-1.91592-3.46275-3.44536-.10575-.17606-.35157-.54506-.35157-.73856 0-.22838.31669-.49219.63282-.77344.29869-.26381.61537-.57994.61537-.96694 0-.05287-.03543-.21094-.10575-.43931-.15806-.45731-.369-.98438-.54506-1.494-.08775-.24638-.15806-.42188-.17606-.50963-.03544-.05287-.05288-.12318-.07032-.21093-.01743-.08775-.05287-.15807-.07031-.22838-.05287-.15806-.14062-.28125-.22837-.35156-.08775-.03544-.29869-.08775-.50963-.10575-.21094 0-.45731-.01744-.5625-.01744-.05287 0-.12318 0-.1935.01744h-.22837c-.5625.24637-.96694.73856-1.26563 1.3185-.28125.57994-.45731 1.23075-.45731 1.81069z" fill="#fff"/></svg>