<svg fill="none" height="32" viewBox="0 0 32 32" width="32" xmlns="http://www.w3.org/2000/svg"><g fill="#ffd874"><path d="m13.3106 17.413c.9961-2.7871 3.5215-4.7968 6.4805-5.1338-.9668-2.75096-3.5859-4.71871-6.666-4.71871-3.90238 0-7.06931 3.16211-7.06931 7.06541 0 1.8613.72068 3.5537 1.89843 4.8174 1.3545-1.2598 3.17088-2.0342 5.16698-2.0342.0625.0001.123.0039.1894.0039z"/><path d="m14.1534 1.50293h-2.0587v3.96287h2.0587z"/><path d="m7.37402 7.42089-2.80175-2.80175-1.45606 1.45513 2.80181 2.80268z"/><path d="m3.96287 13.5977h-3.96287v2.0586h3.96287z"/><path d="m3.11621 23.1777 1.45413 1.458 1.09862-1.0996c.17288-.8818.49806-1.709.95119-2.4541l-.70413-.7041z"/><path d="m23.1328 6.07423-1.457-1.45607-2.8008 2.80269 1.4551 1.45606z"/><path d="m26.4111 19.0215c-.5771-2.6768-2.9551-4.6826-5.8037-4.6826-2.8789 0-5.2774 2.0468-5.8222 4.7656-.3223-.0557-.6524-.0908-.9903-.0908-3.1719 0-5.74217 2.5703-5.74217 5.7412 0 3.1718 2.57027 5.7422 5.74217 5.7422h12.4629c3.1719 0 5.7422-2.5704 5.7422-5.7422 0-3.1202-2.4883-5.6523-5.5889-5.7334z"/></g></svg>