<svg fill="none" height="622" viewBox="0 0 523 622" width="523" xmlns="http://www.w3.org/2000/svg" xmlns:xlink="http://www.w3.org/1999/xlink"><linearGradient id="a" gradientUnits="userSpaceOnUse" x1="212" x2="212" y1="0" y2="622"><stop offset="0" stop-color="#080a08"/><stop offset="1" stop-color="#ffd874" stop-opacity="0"/></linearGradient><g fill="url(#a)" fill-opacity=".15"><path d="m127.119 530.771c.044-4.217.087-8.157.13-12.09.702-.212 1.058-.427 1.398-.405 6.278.406 12.548.933 18.831 1.227 2.942.137 5.905-.201 8.86-.258 6.051-.118 5.738.861 8.608-4.687 3.953-7.643 8.22-15.134 12.174-22.775 1.776-3.431 2.962-7.145 4.698-10.599 3.103-6.175 6.383-12.269 9.657-18.362 2.806-5.22 5.707-10.393 8.569-15.586.313-.567.624-1.138.979-1.681 1.496-2.287 3.57-3.349 6.453-3.33 10.405.067 20.811.001 31.216-.019 33.794-.066 67.588-.082 101.382-.232 11.252-.05 22.502-.427 33.752-.701 3.79-.092 7.579-.284 11.364-.51 2.716-.163 2.929-.121 4.203 2.29 3.686 6.976 7.363 13.957 11.036 20.94 3.196 6.077 6.262 12.22 9.6 18.223 5.004 9 10.066 17.975 15.375 26.808 1.852 3.081 4.54 5.686 6.776 8.558.788 1.012 1.806.871 2.835.847 8.962-.212 17.923-.441 26.885-.651 1.519-.036 3.04-.005 4.822-.005.186.685.556 1.446.577 2.216.239 8.569.468 17.139.593 25.71.032 2.234-.329 2.575-2.606 2.827-3.411.379-6.847.532-10.264.859-3.185.306-3.156.369-3.122 3.321.181 15.859.339 31.719.506 47.579.058 5.52.124 11.041.18 16.562.013 1.283.002 2.567.002 3.954-1.439.845-2.977.678-4.463.669-13.268-.081-26.536-.207-39.804-.27-26.252-.125-52.503-.23-78.755-.322-11.455-.04-22.911-.029-34.366-.042-13.257-.015-26.515-.02-39.772-.052-2.386-.006-4.771-.19-7.156-.173-13.733.097-27.467.295-41.2.335-21.002.062-42.005.024-63.007.022-.748 0-1.497-.072-2.431-.119-.107-.786-.276-1.483-.285-2.182-.168-13.093-.391-26.187-.433-39.281-.019-5.609.321-11.221.548-16.829.101-2.483.271-4.965.513-7.438.158-1.621-.657-2.434-2.144-2.719-1.397-.267-2.819-.421-4.235-.589-2.734-.325-5.47-.624-8.479-.964 0-6.742 0-13.271 0-20.076zm87.421-8.196c3.34.034 6.679.077 10.018.1 18.686.127 37.373.261 56.059.367 7.442.042 14.885.012 22.328.026 12.488.023 24.976.085 37.464.074 12.759-.011 25.517-.069 38.275-.167 1.471-.011 2.938-.403 4.716-.664-.873-2.01-1.503-3.744-2.355-5.37-3.531-6.739-7.11-13.454-10.709-20.159-2.326-4.334-4.663-8.663-7.098-12.939-1.391-2.443-3.213-3.86-6.567-3.843-30.151.15-60.303.093-90.455.098-3.037.001-6.075-.025-9.112.014-7.632.095-15.263.304-22.895.294-3.154-.004-5.129 1.078-6.442 3.945-2.775 6.06-5.626 12.106-8.826 17.963-2.8 5.125-6.142 9.971-9.197 14.968-.797 1.305-1.417 2.71-2.088 4.009 2.1 1.708 4.28 1.139 6.884 1.284z"/><path d="m86.3975 545.162v76.838c-26.7776 0-53.3489 0-80.29456 0 0-1.044-.00087-2.116.0001-3.189.02381-25.918.06373-51.836.06856-77.754.01054-56.458.0033-112.916.00288-169.375 0-.922.20416-1.903-.04956-2.756-.66529-2.236.63099-3.241 2.3934-4.071 5.57318-2.625 11.16648-5.212 16.70998-7.894 13.9014-6.727 27.7592-13.538 41.677-20.232 5.795-2.788 11.6964-5.369 17.556-8.031.4969-.225 1.0443-.347 1.9362-.637 0 72.46.0001 144.642 0 217.101z"/><path d="m516.197 249.256c1.902-.9 3.379-.911 5.301.006l-1.072-118.399c-1.162-.527-2.109-.466-3.226.049-6.105 2.817-12.223 5.608-18.36 8.358-20.765 9.307-41.263 19.14-61.827 28.851-47.982 22.659-96.211 44.828-144.332 67.21-56.971 26.499-113.925 53.033-170.933 79.46-2.596 1.203-3.441 2.661-3.379 5.304.303 12.72.456 25.443.664 38.165l.001.068c.004.254.008.51.052.759.03.165.148.316.358.739h2.65c52.124 0 104.249-.007 156.374.025 1.87.001 3.523-.373 5.198-1.164 21.506-10.157 43.031-20.278 64.556-30.398 30.015-14.112 60.036-28.212 90.051-42.325l7.387-3.473c23.522-11.059 47.044-22.118 70.537-33.235z"/><path d="m518.125 96.9151c1.691-.7693 3.059-.8404 4.799-.0305l.076-96.254235c-1.689-.803815-3.049-.864506-4.781-.033858-14.096 6.760763-28.24 13.428793-42.374 20.116393-34.005 16.0903-68.015 32.1716-102.019 48.2642-41.114 19.4574-82.222 38.9269-123.336 58.3829-38.716 18.322-77.441 36.626-116.154 54.951-34.004 16.095-67.9916 32.221-101.9969 48.313-43.0833 20.387-86.1776 40.753-129.2623 61.138-.6389.302-1.2135.731-2.0768 1.259 3.0401 1.487 5.7555 2.823 8.4776 4.147 26.3291 12.798 52.6612 25.591 78.9836 38.403 1.3142.64 2.41988 1.026 3.98391.317 8.459538-3.833 17.04474-7.409 25.48979-11.271 23.0139-10.525 45.949-21.211 68.9752-31.711 13.6209-6.211 27.3839-12.131 41.0309-18.29 10.626-4.797 21.141-9.824 31.762-14.632 9.84-4.455 19.768-8.726 29.627-13.142 2.667-1.195 5.173-2.727 7.84-3.922 6.919-3.098 13.937-5.994 20.827-9.152 24.643-11.293 49.204-22.754 73.877-33.985 75.401-34.322 150.842-68.562 226.251-102.8679z"/></g></svg>