<svg fill="none" height="29" viewBox="0 0 28 29" width="28" xmlns="http://www.w3.org/2000/svg"><g fill="#080807"><path d="m3.93767 14.6667c.05498-.1029.05498-.227 0-.3316l-.92922-1.7973c-.26245-.5072-.31122-1.1065-.13389-1.6474.01153-.0355.03104-.0674.04611-.1029h-2.205138c-.25802 0-.496533.1384-.6224391.3636-.1276798.2243-.1232464.5.0106401.7199l1.589787 2.629-1.589787 2.6325c-.1329999.2199-.1374332.4965-.0115267.72.1276797.2252.3644197.3635.6224387.3635h2.206025c-.01507-.0381-.03458-.0691-.04611-.1055-.17644-.5364-.12856-1.1376.13212-1.6448z"/><path d="m23.283 15.0693c-.1844-.3556-.1844-.7812 0-1.1367l.9301-1.7955c.1534-.3015.1827-.6509.0789-.9736-.1055-.321-.3342-.587-.6375-.7404l-1.8043-.90259c-.3627-.18176-.6109-.52668-.673-.92568l-.3006-1.99588c-.0496-.33427-.2341-.63396-.5072-.83346-.2722-.20039-.6153-.28108-.9478-.22699l-1.995.32984c-.3972.0665-.8024-.06384-1.0844-.35289l-1.4196-1.43906c-.2394-.24029-.5648-.37772-.9008-.37772-.0071 0-.0142.00177-.0213.00177s-.0142-.00177-.0213-.00177c-.3369 0-.6623.13743-.9008.37772l-1.4205 1.43817c-.281.28905-.6862.41939-1.0843.35289l-1.99504-.32984c-.3325-.05408-.67564.0266-.94785.22699-.27398.20039-.4584.49919-.50717.83346l-.30147 1.99589c-.06117.399-.31033.74391-.67297.92568l-1.80437.90267c-.30324.1533-.532.4193-.63751.7403-.10374.3228-.07448.6721.07891.9736l.93012 1.7955c.18442.3555.18442.7811 0 1.1367l-.93012 1.7946c-.15339.3015-.18265.6508-.07891.9744.10551.3219.33516.587.63751.7404l1.80437.9026c.36353.1818.6118.5267.67297.9266l.30058 1.995c.05054.336.23497.6375.50718.8326.27309.2012.61534.2801.94784.2269l1.99593-.3289c.3972-.0674.8024.0638 1.0843.3529l1.4205 1.439c.2385.2386.5639.376.9008.376.0071 0 .0133-.0018.0204-.0018s.0133.0018.0204.0018c.3361 0 .6624-.1374.9009-.376l1.4204-1.439c.282-.2891.6872-.4212 1.0844-.3529l1.9959.3289c.3325.0541.6756-.0257.9478-.2269.2731-.196.4567-.4975.5072-.8326l.3006-1.995c.0621-.3999.3103-.7448.673-.9275l1.8043-.9026c.3033-.1534.532-.4185.6375-.7395.1038-.3227.0745-.6729-.0789-.9744zm-9.2621 6.9381c-.0071 0-.0142-.0018-.0213-.0018s-.0142.0018-.0212.0018c-4.24274 0-7.69542-3.4535-7.69542-7.698 0-4.2427 3.45268-7.69538 7.69542-7.69538.007 0 .0141.00089.0212.00089s.0142-.00089.0213-.00089c4.2427 0 7.6954 3.45268 7.6954 7.69538.0009 4.2445-3.4527 7.698-7.6954 7.698z"/><path d="m14.0199 7.72412c-.0071 0-.0133.00089-.0195.00089-.0071 0-.0133-.00089-.0195-.00089-3.6265 0-6.57465 2.94998-6.57465 6.57638 0 3.6238 2.94815 6.5729 6.57465 6.5729.0062 0 .0133-.0009.0195-.0009s.0133.0009.0195.0009c3.6256 0 6.5746-2.9491 6.5746-6.5729-.0009-3.6256-2.949-6.57638-6.5746-6.57638z"/><path d="m26.3064 14.5 1.5898-2.629c.133-.2207.1383-.4965.0106-.7199-.1259-.2252-.3644-.3636-.6224-.3636h-2.2052c.0151.0355.0346.0674.0461.1029.1774.5409.1286 1.1402-.1338 1.6474l-.9293 1.7973c-.0549.1046-.0549.2287 0 .3316l.9319 1.799c.2607.5072.3095 1.1084.1321 1.6448-.0115.0364-.031.0674-.0461.1055h2.2052c.258 0 .4956-.1383.6224-.3635.1268-.2243.1215-.5001-.0115-.72z"/></g></svg>