<svg fill="none" height="29" viewBox="0 0 28 29" width="28" xmlns="http://www.w3.org/2000/svg"><path d="m2.95162 23.425 1.56333.6533v-10.535l-2.835 6.8367c-.47833 1.19.09334 2.555 1.27167 3.045zm22.74998-4.3167-5.7866-13.96496c-.3617-.875-1.2134-1.41166-2.1117-1.435-.3033 0-.6183.04667-.9217.175l-8.59831 3.55834c-.875.36166-1.41167 1.20166-1.435 2.1-.01167.315.04666.63002.175.93332l5.78671 13.965c.3616.8867 1.225 1.4233 2.135 1.435.3033 0 .6066-.0583.8983-.175l8.5867-3.5583c1.19-.49 1.7616-1.855 1.2716-3.0334zm-16.50831-8.4c-.64167 0-1.16667-.525-1.16667-1.16662 0-.64167.525-1.16667 1.16667-1.16667.64166 0 1.16671.525 1.16671 1.16667 0 .64162-.52505 1.16662-1.16671 1.16662zm-2.33334 12.8334c0 1.2833 1.05 2.3333 2.33334 2.3333h1.69171l-4.02505-9.73z" fill="#080807"/></svg>