<svg fill="none" height="29" viewBox="0 0 28 29" width="28" xmlns="http://www.w3.org/2000/svg"><g fill="#080807"><path d="m20.2953 5.2374-6.2953-3.2374-6.29668 3.23784-5.20332-1.40818v1.4856 11.32214c0 .7523.15948 1.4834.42453 2.1742.4667 1.21 1.24841 2.3086 2.17063 3.3015 1.38678 1.4865 3.10139 2.7386 4.69614 3.6474.7983.4538 1.5656.82 2.2636 1.0823.3495.1313.682.2366 1.0009.3126.3203.0747.6244.1239.9442.1248.4848-.0036.9448-.1088 1.4569-.2681.8876-.2821 1.9083-.7571 2.981-1.3838 1.6041-.9416 3.3085-2.2198 4.6624-3.7297.6761-.7559 1.265-1.5718 1.6963-2.4493.4299-.8766.703-1.8235.7034-2.812 0-2.3776 0-5.2081 0-7.44429 0-1.11806 0-2.08754 0-2.77747 0-.68992 0-1.09949 0-1.09949v-1.48639zm2.9047 11.4c0 .4361-.0921.8943-.2763 1.3737-.3194.8376-.929 1.7301-1.7146 2.5722-1.1752 1.2649-2.7344 2.413-4.1503 3.2162-.7071.4024-1.3792.72-1.933.9275-.2763.1039-.5229.18-.721.2269-.1967.0478-.3473.0628-.4048.0619-.0902.0036-.3849-.0398-.7532-.1592-.6533-.2057-1.5584-.6165-2.5085-1.1742-1.42895-.8351-2.97475-2.0057-4.11258-3.2803-.57006-.6365-1.03727-1.2968-1.35077-1.9376-.31539-.6422-.47528-1.2556-.47482-1.8271 0-2.3776 0-5.2081 0-7.44429 0-.9248 0-1.74518 0-2.39268l3.16653.85666 6.03334-3.10255 6.0325 3.10255.4362-.11806 2.7313-.7386z"/><path d="m14.0003 7.11963-5.31779 2.73411-1.58217-.42808v7.05234c0 2.4007 5.17366 5.881 6.89996 6.1685 1.7264-.2875 6.9-3.7678 6.9-6.1685v-7.05234l-1.5835.42808z"/></g></svg>