<svg fill="none" height="42" viewBox="0 0 42 42" width="42" xmlns="http://www.w3.org/2000/svg" xmlns:xlink="http://www.w3.org/1999/xlink"><clipPath id="a"><path d="m0 21c0-11.59798 9.40202-21 21-21 11.598 0 21 9.40202 21 21 0 11.598-9.402 21-21 21h-20.439998c-.309279 0-.560002-.2507-.560002-.56z"/></clipPath><g clip-path="url(#a)"><path d="m0 21c0-11.59798 9.40202-21 21-21 11.598 0 21 9.40202 21 21 0 11.598-9.402 21-21 21h-20.439998c-.309279 0-.560002-.2507-.560002-.56z" fill="#ffd874"/><g fill="#080a08"><path d="m6.72374 29.8665c.00245-.2373.00487-.4589.00729-.6803.03952-.0119.05957-.024.0787-.0228.35323.0229.70608.0525 1.0596.0691.16554.0077.33227-.0113.49854-.0145.34053-.0067.32291.0484.4844-.2638.22243-.43.46252-.8515.68505-1.2815.09993-.1931.16667-.4021.26433-.5964.17459-.3475.35915-.6904.54345-1.0332.1578-.2938.3211-.5849.4821-.8771.0176-.0319.0352-.064.0551-.0946.0842-.1287.2009-.1884.3631-.1874.5855.0038 1.1711.0001 1.7566-.001 1.9016-.0038 3.8032-.0046 5.7047-.0131.6332-.0028 1.2662-.024 1.8993-.0394.2133-.0052.4265-.016.6394-.0287.1529-.0092.1648-.0068.2365.1288.2074.3926.4143.7854.621 1.1783.1798.342.3524.6877.5402 1.0254.2816.5065.5665 1.0115.8652 1.5085.1042.1734.2554.32.3813.4816.0443.0569.1016.049.1595.0476.5043-.0119 1.0085-.0248 1.5128-.0366.0855-.002.1711-.0003.2713-.0003.0105.0386.0313.0814.0325.1247.0135.4822.0263.9644.0334 1.4467.0018.1258-.0185.1449-.1467.1591-.1919.0213-.3852.0299-.5775.0484-.1792.0172-.1776.0207-.1757.1868.0102.8924.019 1.7849.0285 2.6773.0033.3106.007.6213.0101.9319.0008.0723.0001.1445.0001.2225-.081.0476-.1675.0382-.2511.0377-.7466-.0046-1.4932-.0117-2.2398-.0152-1.4772-.0071-2.9544-.0129-4.4316-.0181-.6445-.0023-1.2891-.0017-1.9337-.0024-.746-.0008-1.492-.0011-2.238-.0029-.1342-.0004-.2685-.0107-.4027-.0098-.7728.0055-1.5455.0166-2.3183.0189-1.1818.0035-2.3636.0013-3.5454.0012-.04212 0-.08425-.004-.13682-.0067-.006-.0442-.01552-.0834-.01603-.1227-.00942-.7368-.02197-1.4736-.02438-2.2104-.00103-.3156.01809-.6314.03086-.947.00566-.1397.01527-.2794.02885-.4185.00891-.0912-.03692-.137-.12061-.153-.07863-.015-.15866-.0237-.23833-.0331-.1538-.0183-.30779-.0351-.47713-.0543 0-.3794 0-.7467.00003-1.1297zm4.91916-.4611c.1879.0019.3758.0043.5638.0056 1.0514.0071 2.1029.0146 3.1544.0206.4188.0024.8376.0007 1.2564.0015.7027.0013 1.4054.0047 2.1081.0041.7179-.0006 1.4358-.0039 2.1537-.0093.0828-.0007.1653-.0227.2654-.0374-.0492-.1131-.0846-.2107-.1325-.3022-.1987-.3792-.4001-.757-.6026-1.1344-.1309-.2438-.2624-.4874-.3994-.728-.0783-.1375-.1808-.2172-.3696-.2163-1.6966.0085-3.3932.0053-5.0898.0056-.171 0-.3419-.0014-.5128.0007-.4294.0054-.8589.0172-1.2883.0166-.1775-.0003-.2886.0606-.3625.222-.1562.341-.3165.6812-.4966 1.0108-.1576.2883-.3456.5611-.5175.8422-.0449.0734-.0798.1525-.1175.2256.1181.0961.2408.0641.3873.0723z"/><path d="m4.43234 30.6763v4.3237c-1.50678 0-3.00195 0-4.5181879 0 0-.0587-.0000491-.1191.0000062-.1794.00134-1.4584.0035859-2.9168.0038577-4.3753.0005931-3.1769.0001854-6.3538.0001621-9.5307 0-.0519.0114879-.1071-.002789-.1551-.0374351-.1258.0355062-.1824.1346769-.2291.313604-.1477.628338-.2932.940274-.4442.78223-.3785 1.56201-.7618 2.34517-1.1384.32609-.1569.65815-.3021.98788-.4519.02796-.0127.05876-.0196.10895-.0359z"/><path d="m28.6172 14.0257c.107-.0507.1901-.0513.2983.0003l-.0603-6.66234c-.0654-.02966-.1187-.02623-.1816.00277-.3435.1585-.6877.31555-1.0331.47032-1.1684.52368-2.3219 1.07702-3.479 1.62346-2.6999 1.27499-5.4138 2.52239-8.1216 3.78189-3.2058 1.4911-6.41057 2.9842-9.61839 4.4712-.1461.0677-.19365.1497-.19011.2985.01704.7157.02565 1.4317.03735 2.1475l.00006.0038c.00021.0143.00043.0288.00293.0427.00167.0094.00831.0178.02014.0416h.14908c2.93306 0 5.86614-.0003 8.79914.0015.1053 0 .1983-.021.2925-.0655 1.2102-.5716 2.4214-1.1411 3.6326-1.7106 1.689-.794 3.3783-1.5874 5.0672-2.3816l.4157-.1954c1.3236-.6223 2.6472-1.2446 3.9691-1.8701z"/><path d="m28.7257 5.45342c.0951-.04329.1721-.04729.2701-.00172l.0042-5.4162293c-.095-.04523075-.1716-.0486459-.269-.0019052-.7932.3804285-1.5891.7556415-2.3844 1.1319545-1.9135.9054-3.8272 1.8103-5.7406 2.71583-2.3135 1.09487-4.6267 2.19042-6.9402 3.28524-2.1785 1.03094-4.35755 2.06091-6.53599 3.09211-1.91336.9057-3.82587 1.8131-5.73935 2.7185-2.4243 1.1472-4.84922 2.2932-7.2736 3.4402-.03595.0171-.06828.0412-.11686.0709.17107.0837.32386.1589.47704.2333 1.48154.7202 2.96325 1.4401 4.44441 2.161.07395.036.136167.0577.224175.0179.476019-.2157.959109-.417 1.434313-.6343 1.294992-.5922 2.585552-1.1935 3.881242-1.7843.76646-.3495 1.5409-.6827 2.3088-1.0292.59795-.2699 1.18963-.5528 1.78727-.8234.55369-.2506 1.11237-.491 1.66715-.7395.1501-.0672.291-.1534.4411-.2206.3894-.1744.7843-.3373 1.172-.515 1.3866-.6355 2.7687-1.2804 4.157-1.9124 4.2428-1.93129 8.4879-3.85797 12.7312-5.78838z"/></g></g></svg>