<svg fill="none" height="47" viewBox="0 0 48 47" width="48" xmlns="http://www.w3.org/2000/svg"><path d="m44.7083 31.5271c0 1.1047-.251 2.084-.7532 2.9377-.452.8034-1.0546 1.4814-1.8078 2.0338-.7533.5524-1.5819.9792-2.4858 1.2805-.8537.2511-1.6571.3766-2.4104.3766-1.155 0-2.3351-.2511-3.5403-.7532-1.155-.5524-2.2096-1.3308-3.1637-2.3351-.9541-1.0044-1.7325-2.2096-2.3351-3.6157-.6026-1.406-.9039-2.9628-.9039-4.6701 0-2.9629.5524-5.4988 1.6572-7.6079 1.155-2.1092 2.5108-3.8668 4.0676-5.2728 1.6069-1.4563 3.239-2.5862 4.8961-3.3897 1.7074-.85369 3.1135-1.45629 4.2183-1.80781v2.41041c-1.0044.6026-2.084 1.2554-3.239 1.9585-1.1048.703-2.1343 1.5316-3.0884 2.4857-.9039.9541-1.6572 2.0338-2.2598 3.239s-.9039 2.5611-.9039 4.0676c0 .7533.0754 1.3559.226 1.8078.1507.452.3264.8035.5273 1.0546.2511.2511.4771.4268.6779.5273.2511.1004.452.1506.6026.1506.5524 0 1.2303-.1506 2.0338-.4519.8035-.3516 1.5567-.5273 2.2598-.5273.6528 0 1.3056.1506 1.9585.4519.703.2511 1.3307.6529 1.8831 1.2053.5524.5021 1.0043 1.1298 1.3559 1.8831.3515.7533.5272 1.6069.5272 2.5611zm-23.4922-.1507c0 1.1048-.251 2.084-.7532 2.9377-.452.8537-1.0546 1.5567-1.8078 2.1091-.7533.5022-1.5819.9039-2.4858 1.2052-.8537.2511-1.6823.3767-2.4857.3767-1.155 0-2.31-.2511-3.465-.7533-1.155-.5524-2.20956-1.3056-3.16369-2.2598-.95412-1.0043-1.73249-2.2095-2.33509-3.6156-.55239-1.4061-.82858-2.9628-.82858-4.6702 0-2.9628.55238-5.4988 1.65716-7.6079 1.15499-2.1593 2.51086-3.942 4.06759-5.3481 1.60691-1.4563 3.23901-2.5862 4.89621-3.3896 1.6571-.85374 3.0381-1.45635 4.1429-1.80787v2.48577c-1.0044.6026-2.084 1.2554-3.239 1.9584-1.1048.7031-2.1343 1.5317-3.0884 2.4858-.9039.9541-1.6823 2.0338-2.33508 3.239-.60261 1.155-.90391 2.5109-.90391 4.0676 0 1.4061.27619 2.3351.82858 2.787.60261.452 1.05451.678 1.35591.678.5021 0 1.1549-.1507 1.9584-.452s1.5568-.4519 2.2598-.4519c.6528 0 1.3056.1506 1.9585.4519.703.2511 1.3307.6528 1.8831 1.2052.5524.5022 1.0043 1.1299 1.3559 1.8832.3515.703.5272 1.5316.5272 2.4857z" fill="#ffd874"/></svg>