<svg fill="none" height="47" viewBox="0 0 47 47" width="47" xmlns="http://www.w3.org/2000/svg" xmlns:xlink="http://www.w3.org/1999/xlink"><linearGradient id="a" gradientUnits="userSpaceOnUse" x1="23.934" x2="22.8552" y1="7.77921" y2="38.6726"><stop offset="0"/><stop offset="1" stop-color="#3a3a3a"/></linearGradient><path d="m31.7287 22.3739 2.8872.1008c.3874.0136.6773.3688.6638.7563l-.5296 15.1668c-.0136.3874-.3261.6788-.7135.6653l-22.3628-.7809c-.3874-.0136-.6788-.3261-.6653-.7135l.5296-15.1668c.0136-.3875.3275-.7216.715-.7081l2.8003.0978.2468-7.0664c.1384-3.964 2.7953-7.14988 6.7166-7.01294l3.7062.12942c3.9641.13843 6.3922 3.50182 6.2538 7.46592l-.2468 7.0664zm-13.0118-.4544 9.3938.3281.2347-6.7217c.0768-2.1978-1.6689-4.1141-3.9094-4.1924l-1.3361-.0466c-2.1978-.0768-4.0715 1.7132-4.1483 3.911zm2.2877 12.2889 4.0068.1399-.8394-4.3861c.7014-.3206 1.2013-1.0362 1.2299-1.8552.0436-1.2492-.9146-2.2324-2.1211-2.2746-1.2064-.0421-2.1882.8734-2.2318 2.1226-.0286.819.4201 1.5677 1.0975 1.9365z" fill="url(#a)" opacity=".8"/></svg>