<svg fill="none" height="46" viewBox="0 0 47 46" width="47" xmlns="http://www.w3.org/2000/svg" xmlns:xlink="http://www.w3.org/1999/xlink"><clipPath id="a"><path d="m.5 23c0-12.7025 10.2975-23 23-23s23 10.2975 23 23-10.2975 23-23 23h-22.38666c-.338739 0-.61334-.2746-.61334-.6133z"/></clipPath><g clip-path="url(#a)"><path d="m.5 23c0-12.7025 10.2975-23 23-23s23 10.2975 23 23-10.2975 23-23 23h-22.38666c-.338739 0-.61334-.2746-.61334-.6133z" fill="#ffd874"/><path d="m7.49943 7c7.48207 0 13.54817 6.0654 13.54817 13.547v19.453h-27.09525v-19.453c.00007-7.4816 6.0660712-13.547 13.54708-13.547zm6.07937 22.2312c1.4393 0 2.6048-1.1662 2.6048-2.6048 0-1.4393-1.1655-2.6054-2.6048-2.6054s-2.6048 1.1661-2.6048 2.6054c0 1.4386 1.1655 2.6048 2.6048 2.6048z" fill="#080a08"/></g></svg>