<svg fill="none" height="33" viewBox="0 0 163 33" width="163" xmlns="http://www.w3.org/2000/svg" xmlns:xlink="http://www.w3.org/1999/xlink"><mask id="a" fill="#fff"><path d="m10.6808 25.1609c.0021-.1999.0041-.3867.0062-.5731.0331-.0101.05-.0203.066-.0192.2965.0192.5927.0442.8895.0581.1389.0065.2789-.0095.4185-.0122.2858-.0056.271.0408.4066-.2222.1867-.3623.3883-.7174.5751-1.0796.0838-.1627.1399-.3387.2219-.5024.1465-.2928.3014-.5816.4561-.8705.1325-.2474.2696-.4927.4048-.7388.0147-.0269.0295-.054.0462-.0797.0707-.1084.1686-.1588.3048-.1579.4915.0032.983.0001 1.4745-.0009 1.5963-.0031 3.1926-.0038 4.7888-.011.5315-.0024 1.063-.0202 1.5944-.0332.179-.0044.358-.0135.5367-.0242.1283-.0077.1384-.0057.1986.1086.1741.3307.3477.6616.5212.9926.151.2881.2959.5793.4535.8639.2364.4266.4755.8521.7263 1.2708.0874.146.2144.2695.32.4057.0372.0479.0853.0413.1339.0401.4234-.01.8466-.0209 1.27-.0308.0717-.0017.1436-.0003.2277-.0003.0088.0325.0263.0686.0273.1051.0113.4062.0221.8124.028 1.2187.0015.106-.0156.1221-.1231.1341-.1611.0179-.3234.0252-.4848.0407-.1505.0145-.1491.0175-.1475.1574.0085.7518.016 1.5036.0239 2.2555.0028.2617.0059.5234.0085.7851.0006.0608.0001.1217.0001.1874-.068.0401-.1406.0322-.2108.0317-.6267-.0038-1.2534-.0098-1.8802-.0128-1.24-.0059-2.48-.0109-3.72-.0152-.5411-.0019-1.0822-.0014-1.6233-.002-.6262-.0007-1.2524-.001-1.8786-.0025-.1127-.0003-.2254-.009-.338-.0082-.6488.0046-1.2975.014-1.9462.0159-.992.0029-1.9841.0011-2.9761.001-.0354 0-.0707-.0034-.1149-.0056-.005-.0373-.013-.0703-.0134-.1034-.0079-.6207-.0185-1.2414-.0205-1.8621-.0009-.2659.0152-.532.0259-.7978.0048-.1177.0128-.2354.0242-.3526.0075-.0768-.031-.1154-.1012-.1289-.066-.0127-.1332-.02-.2001-.0279-.1291-.0154-.2583-.0296-.4005-.0457 0-.3196 0-.6291 0-.9517zm4.1294-.3885c.1577.0016.3155.0036.4732.0047.8827.006 1.7653.0124 2.648.0174.3515.002.7031.0006 1.0546.0012.5899.0011 1.1798.004 1.7697.0035.6026-.0005 1.2053-.0032 1.8079-.0078.0695-.0006.1388-.0192.2228-.0315-.0413-.0953-.071-.1775-.1113-.2546-.1667-.3195-.3358-.6378-.5058-.9557-.1099-.2054-.2203-.4106-.3353-.6133-.0657-.1158-.1517-.183-.3102-.1822-1.4242.0071-2.8484.0045-4.2726.0047-.1435 0-.287-.0012-.4305.0006-.3605.0046-.7209.0145-1.0814.014-.149-.0002-.2423.0511-.3043.187-.1311.2873-.2657.5738-.4169.8515-.1323.2429-.2901.4727-.4344.7096-.0377.0618-.067.1284-.0987.19.0992.081.2022.054.3252.0609z" fill="#fff"/><path d="m8.75733 25.8431v3.6425c-1.26485 0-2.51996 0-3.79275 0 0-.0495-.00004-.1004.00001-.1512.00112-1.2286.00301-2.4573.00324-3.6859.00049-2.6764.00015-5.3527.00013-8.0291 0-.0437.00965-.0902-.00234-.1307-.03142-.106.02981-.1536.11305-.193.26326-.1244.52746-.247.78931-.3742.65664-.3189 1.31121-.6417 1.96863-.9591.27373-.1321.55248-.2545.82927-.3806.02347-.0107.04932-.0165.09145-.0303z" fill="#fff"/><path d="m29.0591 11.8159c.0899-.0427.1596-.0433.2504.0002l-.0506-5.61263c-.0549-.02498-.0997-.02209-.1524.00234-.2884.13352-.5774.26583-.8673.39622-.9808.44117-1.9491.90732-2.9204 1.36767-2.2664 1.07412-4.5445 2.125-6.8176 3.186-2.691 1.2562-5.3813 2.514-8.0741 3.7668-.1226.057-.1625.1261-.1596.2514.0143.603.0216 1.2061.0314 1.8092v.0032c.0002.0121.0004.0242.0025.036.0014.0078.007.015.0169.035h.1252c2.4621 0 4.9242-.0003 7.3864.0012.0883.0001.1664-.0176.2455-.0551 1.0158-.4815 2.0326-.9613 3.0493-1.4411 1.4178-.6689 2.8359-1.3373 4.2536-2.0063l.349-.1647c1.111-.5242 2.2221-1.0485 3.3318-1.5754z" fill="#fff"/><path d="m29.1502 4.59421c.0798-.03647.1445-.03984.2267-.00145l.0035-4.5628779c-.0797-.0381044-.144-.0409814-.2258-.001605-.6658.3204899-1.3339.6365859-2.0015.9536059-1.6063.762747-3.2127 1.525077-4.8189 2.287937-1.9421.92237-3.8838 1.84531-5.8259 2.76763-1.8287.86851-3.6579 1.7362-5.4866 2.6049-1.60615.76299-3.21159 1.52745-4.81784 2.29025-2.03506.9664-4.07064 1.9319-6.1057608 2.8982-.0301773.0143-.0573225.0347-.0980992.0597.1436.0705.271863.1338.400444.1966 1.243666.6067 2.487476 1.2131 3.730826 1.8204.06208.0304.1143.0487.18818.0151.39959-.1817.80512-.3512 1.20402-.5343 1.08707-.499 2.17042-1.0055 3.25808-1.5032.64339-.2945 1.29345-.5751 1.93805-.8671.502-.2274.9987-.4657 1.5004-.6936.4647-.2112.9337-.4137 1.3994-.623.126-.0566.2443-.1293.3703-.1859.3269-.1469.6584-.2842.9838-.4338 1.164-.5354 2.3242-1.0787 3.4896-1.6111 3.5616-1.62701 7.1251-3.25014 10.6871-4.87639z" fill="#fff"/></mask><g fill="#ffd874"><path d="m10.6808 25.1609c.0021-.1999.0041-.3867.0062-.5731.0331-.0101.05-.0203.066-.0192.2965.0192.5927.0442.8895.0581.1389.0065.2789-.0095.4185-.0122.2858-.0056.271.0408.4066-.2222.1867-.3623.3883-.7174.5751-1.0796.0838-.1627.1399-.3387.2219-.5024.1465-.2928.3014-.5816.4561-.8705.1325-.2474.2696-.4927.4048-.7388.0147-.0269.0295-.054.0462-.0797.0707-.1084.1686-.1588.3048-.1579.4915.0032.983.0001 1.4745-.0009 1.5963-.0031 3.1926-.0038 4.7888-.011.5315-.0024 1.063-.0202 1.5944-.0332.179-.0044.358-.0135.5367-.0242.1283-.0077.1384-.0057.1986.1086.1741.3307.3477.6616.5212.9926.151.2881.2959.5793.4535.8639.2364.4266.4755.8521.7263 1.2708.0874.146.2144.2695.32.4057.0372.0479.0853.0413.1339.0401.4234-.01.8466-.0209 1.27-.0308.0717-.0017.1436-.0003.2277-.0003.0088.0325.0263.0686.0273.1051.0113.4062.0221.8124.028 1.2187.0015.106-.0156.1221-.1231.1341-.1611.0179-.3234.0252-.4848.0407-.1505.0145-.1491.0175-.1475.1574.0085.7518.016 1.5036.0239 2.2555.0028.2617.0059.5234.0085.7851.0006.0608.0001.1217.0001.1874-.068.0401-.1406.0322-.2108.0317-.6267-.0038-1.2534-.0098-1.8802-.0128-1.24-.0059-2.48-.0109-3.72-.0152-.5411-.0019-1.0822-.0014-1.6233-.002-.6262-.0007-1.2524-.001-1.8786-.0025-.1127-.0003-.2254-.009-.338-.0082-.6488.0046-1.2975.014-1.9462.0159-.992.0029-1.9841.0011-2.9761.001-.0354 0-.0707-.0034-.1149-.0056-.005-.0373-.013-.0703-.0134-.1034-.0079-.6207-.0185-1.2414-.0205-1.8621-.0009-.2659.0152-.532.0259-.7978.0048-.1177.0128-.2354.0242-.3526.0075-.0768-.031-.1154-.1012-.1289-.066-.0127-.1332-.02-.2001-.0279-.1291-.0154-.2583-.0296-.4005-.0457 0-.3196 0-.6291 0-.9517zm4.1294-.3885c.1577.0016.3155.0036.4732.0047.8827.006 1.7653.0124 2.648.0174.3515.002.7031.0006 1.0546.0012.5899.0011 1.1798.004 1.7697.0035.6026-.0005 1.2053-.0032 1.8079-.0078.0695-.0006.1388-.0192.2228-.0315-.0413-.0953-.071-.1775-.1113-.2546-.1667-.3195-.3358-.6378-.5058-.9557-.1099-.2054-.2203-.4106-.3353-.6133-.0657-.1158-.1517-.183-.3102-.1822-1.4242.0071-2.8484.0045-4.2726.0047-.1435 0-.287-.0012-.4305.0006-.3605.0046-.7209.0145-1.0814.014-.149-.0002-.2423.0511-.3043.187-.1311.2873-.2657.5738-.4169.8515-.1323.2429-.2901.4727-.4344.7096-.0377.0618-.067.1284-.0987.19.0992.081.2022.054.3252.0609z"/><path d="m8.75733 25.8431v3.6425c-1.26485 0-2.51996 0-3.79275 0 0-.0495-.00004-.1004.00001-.1512.00112-1.2286.00301-2.4573.00324-3.6859.00049-2.6764.00015-5.3527.00013-8.0291 0-.0437.00965-.0902-.00234-.1307-.03142-.106.02981-.1536.11305-.193.26326-.1244.52746-.247.78931-.3742.65664-.3189 1.31121-.6417 1.96863-.9591.27373-.1321.55248-.2545.82927-.3806.02347-.0107.04932-.0165.09145-.0303z"/><path d="m29.0591 11.8159c.0899-.0427.1596-.0433.2504.0002l-.0506-5.61263c-.0549-.02498-.0997-.02209-.1524.00234-.2884.13352-.5774.26583-.8673.39622-.9808.44117-1.9491.90732-2.9204 1.36767-2.2664 1.07412-4.5445 2.125-6.8176 3.186-2.691 1.2562-5.3813 2.514-8.0741 3.7668-.1226.057-.1625.1261-.1596.2514.0143.603.0216 1.2061.0314 1.8092v.0032c.0002.0121.0004.0242.0025.036.0014.0078.007.015.0169.035h.1252c2.4621 0 4.9242-.0003 7.3864.0012.0883.0001.1664-.0176.2455-.0551 1.0158-.4815 2.0326-.9613 3.0493-1.4411 1.4178-.6689 2.8359-1.3373 4.2536-2.0063l.349-.1647c1.111-.5242 2.2221-1.0485 3.3318-1.5754z"/><path d="m29.1502 4.59421c.0798-.03647.1445-.03984.2267-.00145l.0035-4.5628779c-.0797-.0381044-.144-.0409814-.2258-.001605-.6658.3204899-1.3339.6365859-2.0015.9536059-1.6063.762747-3.2127 1.525077-4.8189 2.287937-1.9421.92237-3.8838 1.84531-5.8259 2.76763-1.8287.86851-3.6579 1.7362-5.4866 2.6049-1.60615.76299-3.21159 1.52745-4.81784 2.29025-2.03506.9664-4.07064 1.9319-6.1057608 2.8982-.0301773.0143-.0573225.0347-.0980992.0597.1436.0705.271863.1338.400444.1966 1.243666.6067 2.487476 1.2131 3.730826 1.8204.06208.0304.1143.0487.18818.0151.39959-.1817.80512-.3512 1.20402-.5343 1.08707-.499 2.17042-1.0055 3.25808-1.5032.64339-.2945 1.29345-.5751 1.93805-.8671.502-.2274.9987-.4657 1.5004-.6936.4647-.2112.9337-.4137 1.3994-.623.126-.0566.2443-.1293.3703-.1859.3269-.1469.6584-.2842.9838-.4338 1.164-.5354 2.3242-1.0787 3.4896-1.6111 3.5616-1.62701 7.1251-3.25014 10.6871-4.87639z"/></g><path d="m10.6808 25.1609c.0021-.1999.0041-.3867.0062-.5731.0331-.0101.05-.0203.066-.0192.2965.0192.5927.0442.8895.0581.1389.0065.2789-.0095.4185-.0122.2858-.0056.271.0408.4066-.2222.1867-.3623.3883-.7174.5751-1.0796.0838-.1627.1399-.3387.2219-.5024.1465-.2928.3014-.5816.4561-.8705.1325-.2474.2696-.4927.4048-.7388.0147-.0269.0295-.054.0462-.0797.0707-.1084.1686-.1588.3048-.1579.4915.0032.983.0001 1.4745-.0009 1.5963-.0031 3.1926-.0038 4.7888-.011.5315-.0024 1.063-.0202 1.5944-.0332.179-.0044.358-.0135.5367-.0242.1283-.0077.1384-.0057.1986.1086.1741.3307.3477.6616.5212.9926.151.2881.2959.5793.4535.8639.2364.4266.4755.8521.7263 1.2708.0874.146.2144.2695.32.4057.0372.0479.0853.0413.1339.0401.4234-.01.8466-.0209 1.27-.0308.0717-.0017.1436-.0003.2277-.0003.0088.0325.0263.0686.0273.1051.0113.4062.0221.8124.028 1.2187.0015.106-.0156.1221-.1231.1341-.1611.0179-.3234.0252-.4848.0407-.1505.0145-.1491.0175-.1475.1574.0085.7518.016 1.5036.0239 2.2555.0028.2617.0059.5234.0085.7851.0006.0608.0001.1217.0001.1874-.068.0401-.1406.0322-.2108.0317-.6267-.0038-1.2534-.0098-1.8802-.0128-1.24-.0059-2.48-.0109-3.72-.0152-.5411-.0019-1.0822-.0014-1.6233-.002-.6262-.0007-1.2524-.001-1.8786-.0025-.1127-.0003-.2254-.009-.338-.0082-.6488.0046-1.2975.014-1.9462.0159-.992.0029-1.9841.0011-2.9761.001-.0354 0-.0707-.0034-.1149-.0056-.005-.0373-.013-.0703-.0134-.1034-.0079-.6207-.0185-1.2414-.0205-1.8621-.0009-.2659.0152-.532.0259-.7978.0048-.1177.0128-.2354.0242-.3526.0075-.0768-.031-.1154-.1012-.1289-.066-.0127-.1332-.02-.2001-.0279-.1291-.0154-.2583-.0296-.4005-.0457 0-.3196 0-.6291 0-.9517zm4.1294-.3885c.1577.0016.3155.0036.4732.0047.8827.006 1.7653.0124 2.648.0174.3515.002.7031.0006 1.0546.0012.5899.0011 1.1798.004 1.7697.0035.6026-.0005 1.2053-.0032 1.8079-.0078.0695-.0006.1388-.0192.2228-.0315-.0413-.0953-.071-.1775-.1113-.2546-.1667-.3195-.3358-.6378-.5058-.9557-.1099-.2054-.2203-.4106-.3353-.6133-.0657-.1158-.1517-.183-.3102-.1822-1.4242.0071-2.8484.0045-4.2726.0047-.1435 0-.287-.0012-.4305.0006-.3605.0046-.7209.0145-1.0814.014-.149-.0002-.2423.0511-.3043.187-.1311.2873-.2657.5738-.4169.8515-.1323.2429-.2901.4727-.4344.7096-.0377.0618-.067.1284-.0987.19.0992.081.2022.054.3252.0609z" mask="url(#a)" stroke="#080807" stroke-width=".5"/><path d="m8.75733 25.8431v3.6425c-1.26485 0-2.51996 0-3.79275 0 0-.0495-.00004-.1004.00001-.1512.00112-1.2286.00301-2.4573.00324-3.6859.00049-2.6764.00015-5.3527.00013-8.0291 0-.0437.00965-.0902-.00234-.1307-.03142-.106.02981-.1536.11305-.193.26326-.1244.52746-.247.78931-.3742.65664-.3189 1.31121-.6417 1.96863-.9591.27373-.1321.55248-.2545.82927-.3806.02347-.0107.04932-.0165.09145-.0303z" mask="url(#a)" stroke="#080807" stroke-width=".5"/><path d="m29.0591 11.8159c.0899-.0427.1596-.0433.2504.0002l-.0506-5.61263c-.0549-.02498-.0997-.02209-.1524.00234-.2884.13352-.5774.26583-.8673.39622-.9808.44117-1.9491.90732-2.9204 1.36767-2.2664 1.07412-4.5445 2.125-6.8176 3.186-2.691 1.2562-5.3813 2.514-8.0741 3.7668-.1226.057-.1625.1261-.1596.2514.0143.603.0216 1.2061.0314 1.8092v.0032c.0002.0121.0004.0242.0025.036.0014.0078.007.015.0169.035h.1252c2.4621 0 4.9242-.0003 7.3864.0012.0883.0001.1664-.0176.2455-.0551 1.0158-.4815 2.0326-.9613 3.0493-1.4411 1.4178-.6689 2.8359-1.3373 4.2536-2.0063l.349-.1647c1.111-.5242 2.2221-1.0485 3.3318-1.5754z" mask="url(#a)" stroke="#080807" stroke-width=".5"/><path d="m29.1502 4.59421c.0798-.03647.1445-.03984.2267-.00145l.0035-4.5628779c-.0797-.0381044-.144-.0409814-.2258-.001605-.6658.3204899-1.3339.6365859-2.0015.9536059-1.6063.762747-3.2127 1.525077-4.8189 2.287937-1.9421.92237-3.8838 1.84531-5.8259 2.76763-1.8287.86851-3.6579 1.7362-5.4866 2.6049-1.60615.76299-3.21159 1.52745-4.81784 2.29025-2.03506.9664-4.07064 1.9319-6.1057608 2.8982-.0301773.0143-.0573225.0347-.0980992.0597.1436.0705.271863.1338.400444.1966 1.243666.6067 2.487476 1.2131 3.730826 1.8204.06208.0304.1143.0487.18818.0151.39959-.1817.80512-.3512 1.20402-.5343 1.08707-.499 2.17042-1.0055 3.25808-1.5032.64339-.2945 1.29345-.5751 1.93805-.8671.502-.2274.9987-.4657 1.5004-.6936.4647-.2112.9337-.4137 1.3994-.623.126-.0566.2443-.1293.3703-.1859.3269-.1469.6584-.2842.9838-.4338 1.164-.5354 2.3242-1.0787 3.4896-1.6111 3.5616-1.62701 7.1251-3.25014 10.6871-4.87639z" mask="url(#a)" stroke="#080807" stroke-width=".5"/><g fill="#fff"><path d="m162.485 32.6799h-1.944v-3.936h-9.456v3.936h-1.944v-5.736h1.344c.384-.736.736-1.872 1.056-3.408.336-1.552.504-3.064.504-4.536v-2.64h8.832v10.584h1.608zm-3.648-5.736v-8.784h-4.801v1.032c0 1.456-.151 2.936-.455 4.44-.288 1.488-.616 2.592-.984 3.312z"/><path d="m148.562 27.1119v1.584c-.416.16-.88.24-1.392.24-1.168 0-1.768-.608-1.8-1.824-1.168 1.312-2.664 1.968-4.488 1.968-1.216 0-2.184-.312-2.904-.936-.704-.624-1.056-1.48-1.056-2.568 0-2.208 1.464-3.496 4.392-3.864.192-.032.472-.064.84-.096 1.392-.16 2.248-.344 2.568-.552.368-.256.552-.696.552-1.32 0-1.36-.936-2.04-2.808-2.04-.96 0-1.688.2-2.184.6-.496.384-.792 1.024-.888 1.92h-1.992c.032-1.328.504-2.36 1.416-3.096s2.168-1.104 3.768-1.104c1.744 0 3.04.4 3.888 1.2.272.256.472.592.6 1.008s.2.76.216 1.032c.016.256.024.648.024 1.176 0 .608-.016 1.528-.048 2.76s-.048 2.152-.048 2.76c0 .448.056.768.168.96.128.176.352.264.672.264.128 0 .296-.024.504-.072zm-3.288-4.8c-.144.112-.296.208-.456.288s-.368.144-.624.192c-.24.048-.408.088-.504.12-.08.016-.288.048-.624.096-.336.032-.512.048-.528.048-.496.064-.824.112-.984.144-.144.016-.432.08-.864.192-.416.112-.712.24-.888.384s-.352.36-.528.648c-.16.272-.24.6-.24.984 0 .64.216 1.144.648 1.512.448.368 1.056.552 1.824.552.976 0 1.848-.288 2.616-.864s1.152-1.256 1.152-2.04z"/><path d="m136.237 28.7439h-2.592l-4.512-6.096-1.944 1.896v4.2h-2.04v-12.384h2.04v5.904l5.664-5.904h2.736l-4.992 4.872z"/><path d="m122.914 24.232c-.176 1.488-.744 2.672-1.704 3.552-.944.88-2.176 1.32-3.696 1.32-1.872 0-3.32-.576-4.344-1.728-1.024-1.168-1.536-2.72-1.536-4.656 0-2.064.536-3.696 1.608-4.896 1.072-1.216 2.52-1.824 4.344-1.824 1.52 0 2.736.384 3.648 1.152.912.752 1.448 1.832 1.608 3.24h-2.112c-.368-1.792-1.408-2.688-3.12-2.688-1.184 0-2.12.44-2.808 1.32-.688.864-1.032 2.04-1.032 3.528 0 1.504.328 2.688.984 3.552s1.56 1.296 2.712 1.296c.928 0 1.68-.272 2.256-.816.592-.544.968-1.328 1.128-2.352z"/><path d="m110.335 27.1119v1.584c-.416.16-.88.24-1.392.24-1.168 0-1.768-.608-1.8-1.824-1.168 1.312-2.664 1.968-4.488 1.968-1.216 0-2.184-.312-2.9037-.936-.704-.624-1.056-1.48-1.056-2.568 0-2.208 1.4637-3.496 4.3917-3.864.192-.032.472-.064.84-.096 1.392-.16 2.248-.344 2.568-.552.368-.256.552-.696.552-1.32 0-1.36-.936-2.04-2.808-2.04-.96 0-1.688.2-2.184.6-.496.384-.792 1.024-.888 1.92h-1.9917c.032-1.328.504-2.36 1.4157-3.096.912-.736 2.168-1.104 3.768-1.104 1.744 0 3.04.4 3.888 1.2.272.256.472.592.6 1.008s.2.76.216 1.032c.016.256.024.648.024 1.176 0 .608-.016 1.528-.048 2.76s-.048 2.152-.048 2.76c0 .448.056.768.168.96.128.176.352.264.672.264.128 0 .296-.024.504-.072zm-3.288-4.8c-.144.112-.296.208-.456.288s-.368.144-.624.192c-.24.048-.408.088-.504.12-.08.016-.288.048-.624.096-.336.032-.512.048-.528.048-.496.064-.824.112-.984.144-.144.016-.432.08-.864.192-.416.112-.712.24-.888.384s-.352.36-.528.648c-.16.272-.24.6-.24.984 0 .64.216 1.144.648 1.512.448.368 1.056.552 1.824.552.976 0 1.848-.288 2.616-.864s1.152-1.256 1.152-2.04z"/><path d="m98.01 28.7439h-2.592l-4.512-6.096-1.944 1.896v4.2h-2.04v-12.384h2.04v5.904l5.664-5.904h2.736l-4.992 4.872z"/><path d="m74.1247 17.776c1.088-1.184 2.568-1.776 4.44-1.776s3.328.568 4.368 1.704 1.56 2.728 1.56 4.776c0 2.096-.52 3.728-1.56 4.896s-2.504 1.752-4.392 1.752-3.368-.576-4.44-1.728-1.608-2.752-1.608-4.8c0-2.032.544-3.64 1.632-4.824zm7.224 1.248c-.688-.88-1.632-1.32-2.832-1.32s-2.152.44-2.856 1.32-1.056 2.056-1.056 3.528c0 1.52.344 2.712 1.032 3.576.704.848 1.68 1.272 2.928 1.272 1.2 0 2.136-.432 2.808-1.296.688-.864 1.032-2.056 1.032-3.576 0-1.472-.352-2.64-1.056-3.504z"/><path d="m71.9332 18.1599h-4.44v10.584h-2.04v-10.584h-4.44v-1.8h10.92z"/><path d="m49.5146 28.7439v-12.384h5.736c.816 0 1.512.072 2.088.216.576.128 1.08.424 1.512.888s.648 1.096.648 1.896c0 1.216-.608 2.104-1.824 2.664v.024c.736.144 1.312.488 1.728 1.032.416.528.624 1.2.624 2.016 0 1.056-.352 1.928-1.056 2.616s-1.608 1.032-2.712 1.032zm5.52-7.392c.848 0 1.448-.136 1.8-.408.368-.288.552-.704.552-1.248s-.176-.944-.528-1.2-.96-.384-1.824-.384h-3.528v3.24zm-3.528 1.728v3.912h4.368c.64 0 1.136-.192 1.488-.576.368-.384.552-.88.552-1.488 0-1.232-.8-1.848-2.4-1.848z"/><path d="m47.64 27.1119v1.584c-.416.16-.88.24-1.392.24-1.168 0-1.768-.608-1.8-1.824-1.168 1.312-2.664 1.968-4.488 1.968-1.216 0-2.184-.312-2.904-.936-.704-.624-1.056-1.48-1.056-2.568 0-2.208 1.464-3.496 4.392-3.864.192-.032.472-.064.84-.096 1.392-.16 2.248-.344 2.568-.552.368-.256.552-.696.552-1.32 0-1.36-.936-2.04-2.808-2.04-.96 0-1.688.2-2.184.6-.496.384-.792 1.024-.888 1.92h-1.992c.032-1.328.504-2.36 1.416-3.096s2.168-1.104 3.768-1.104c1.744 0 3.04.4 3.888 1.2.272.256.472.592.6 1.008s.2.76.216 1.032c.016.256.024.648.024 1.176 0 .608-.016 1.528-.048 2.76s-.048 2.152-.048 2.76c0 .448.056.768.168.96.128.176.352.264.672.264.128 0 .296-.024.504-.072zm-3.288-4.8c-.144.112-.296.208-.456.288s-.368.144-.624.192c-.24.048-.408.088-.504.12-.08.016-.288.048-.624.096-.336.032-.512.048-.528.048-.496.064-.824.112-.984.144-.144.016-.432.08-.864.192-.416.112-.712.24-.888.384s-.352.36-.528.648c-.16.272-.24.6-.24.984 0 .64.216 1.144.648 1.512.448.368 1.056.552 1.824.552.976 0 1.848-.288 2.616-.864s1.152-1.256 1.152-2.04z"/></g></svg>