<svg fill="none" height="20" viewBox="0 0 22 20" width="22" xmlns="http://www.w3.org/2000/svg" xmlns:xlink="http://www.w3.org/1999/xlink"><clipPath id="a"><path d="m0 0h22v20h-22z"/></clipPath><g clip-path="url(#a)"><path d="m.38577 9.57037 5.05791 1.95953 1.9717 6.5909c.08574.4453.6001.5344.943.2672l2.82902-2.4048c.2571-.2672.6858-.2672 1.0287 0l5.0579 3.8299c.3429.2672.8573.089.943-.3563l3.772-18.704051c.0857-.445335-.3429-.890665-.7716-.7125313l-20.83163 8.3722923c-.51436.17815-.51436.97972 0 1.15786zm6.77245.97973 9.94428-6.32373c.1715-.08908.3429.17812.1715.2672l-8.14408 7.92693c-.25718.2672-.51436.6235-.51436 1.0688l-.25718 2.1376c0 .2672-.42862.3563-.51436 0l-1.02872-3.9189c-.25718-.4453-.08572-.9797.34292-1.1579z" fill="#fff"/></g></svg>