<svg fill="none" height="20" viewBox="0 0 20 20" width="20" xmlns="http://www.w3.org/2000/svg" xmlns:xlink="http://www.w3.org/1999/xlink"><clipPath id="a"><path d="m0 0h20v20h-20z"/></clipPath><g clip-path="url(#a)"><path d="m17.0732 2.91667c-1.8816-1.875-4.3903-2.91667-7.0384-2.91667-5.50518 0-9.9651148 4.44445-9.9651148 9.93055 0 1.73615.4878048 3.47225 1.3240448 4.93055l-1.39373 5.1389 5.29617-1.3889c1.4634.7639 3.06619 1.1806 4.73863 1.1806 5.5053 0 9.9652-4.4445 9.9652-9.93058-.0697-2.56945-1.0453-5.06945-2.9268-6.94445zm-2.23 10.55553c-.2091.5556-1.1847 1.1111-1.6725 1.1806-.4181.0694-.9756.0694-1.5331-.0695-.3484-.1388-.8362-.2778-1.3937-.5555-2.50871-1.0417-4.1115-3.5417-4.25088-3.75-.13935-.1389-1.04528-1.31947-1.04528-2.56947s.62716-1.80554.83624-2.08333c.20904-.27779.48781-.27779.69685-.27779h.48781c.13936 0 .34843-.06942.5575.41667.20905.48612.69686 1.73612.76655 1.80557.06967.13888.06967.27776 0 .41667-.06969.13888-.13938.27776-.27876.41667-.13936.13888-.27874.34721-.34843.41666-.13938.13888-.27874.27776-.13936.4861.13936.27778.62717 1.04165 1.39372 1.73615.97562.8333 1.74214 1.1111 2.02094 1.25.2787.1388.4181.0694.5575-.0695.1393-.1389.6271-.6944.7665-.9722s.3484-.2083.5575-.1389 1.4634.6944 1.6725.8334c.2787.1388.4181.2083.4878.2777.0697.2083.0697.6945-.1394 1.25z" fill="#fff"/></g></svg>